<?xml version="1.0" encoding="UTF-8" standalone="no"?>
<svg
   version="1.1"
   width="553.55115pt"
   height="297.62103pt"
   viewBox="0 0 553.55117 297.62103"
   id="svg5755"
   sodipodi:docname="Poster Tata Cara Shalat Nabi Muhammad EBS2.svg"
   inkscape:version="1.3.1 (91b66b0783, 2023-11-16)"
   xmlns:inkscape="http://www.inkscape.org/namespaces/inkscape"
   xmlns:sodipodi="http://sodipodi.sourceforge.net/DTD/sodipodi-0.dtd"
   xmlns="http://www.w3.org/2000/svg"
   xmlns:svg="http://www.w3.org/2000/svg">
  <sodipodi:namedview
     id="namedview5755"
     pagecolor="#ffffff"
     bordercolor="#000000"
     borderopacity="0.25"
     inkscape:showpageshadow="2"
     inkscape:pageopacity="0.0"
     inkscape:pagecheckerboard="0"
     inkscape:deskcolor="#d1d1d1"
     inkscape:document-units="pt"
     inkscape:zoom="0.125"
     inkscape:cx="3288"
     inkscape:cy="2308"
     inkscape:window-width="1440"
     inkscape:window-height="847"
     inkscape:window-x="-8"
     inkscape:window-y="-8"
     inkscape:window-maximized="1"
     inkscape:current-layer="svg5755" />
  <defs
     id="defs452">
    <clipPath
       clipPathUnits="userSpaceOnUse"
       id="clipPath9289">
      <g
         id="g9290">
        <path
           d="M 0,0 H 2834.65 V 4098.08 H 0 Z"
           id="path9289" />
      </g>
    </clipPath>
    <clipPath
       clipPathUnits="userSpaceOnUse"
       id="clipPath9290">
      <g
         id="g9291">
        <path
           d="M 0,0 H 2834.65 V 4098.08 H 0 Z"
           id="path9290" />
      </g>
    </clipPath>
    <clipPath
       clipPathUnits="userSpaceOnUse"
       id="clipPath9291">
      <g
         id="g9292">
        <path
           d="M 0,0 H 2834.65 V 4098.08 H 0 Z"
           id="path9291" />
      </g>
    </clipPath>
    <clipPath
       clipPathUnits="userSpaceOnUse"
       id="clipPath9292">
      <g
         id="g9293">
        <path
           d="M 0,0 H 2834.65 V 4098.08 H 0 Z"
           id="path9292" />
      </g>
    </clipPath>
    <clipPath
       clipPathUnits="userSpaceOnUse"
       id="clipPath9293">
      <g
         id="g9294">
        <path
           d="M 0,0 H 2834.65 V 4098.08 H 0 Z"
           id="path9293" />
      </g>
    </clipPath>
    <clipPath
       clipPathUnits="userSpaceOnUse"
       id="clipPath9294">
      <g
         id="g9295">
        <path
           d="M 0,0 H 2834.65 V 4098.08 H 0 Z"
           id="path9294" />
      </g>
    </clipPath>
    <clipPath
       clipPathUnits="userSpaceOnUse"
       id="clipPath9295">
      <g
         id="g9296">
        <path
           d="M 0,0 H 2834.65 V 4098.08 H 0 Z"
           id="path9295" />
      </g>
    </clipPath>
    <clipPath
       clipPathUnits="userSpaceOnUse"
       id="clipPath9296">
      <g
         id="g9297">
        <path
           d="M 0,0 H 2834.65 V 4098.08 H 0 Z"
           id="path9296" />
      </g>
    </clipPath>
    <clipPath
       clipPathUnits="userSpaceOnUse"
       id="clipPath9297">
      <g
         id="g9298">
        <path
           d="M 0,0 H 2834.65 V 4098.08 H 0 Z"
           id="path9297" />
      </g>
    </clipPath>
    <clipPath
       clipPathUnits="userSpaceOnUse"
       id="clipPath9298">
      <g
         id="g9299">
        <path
           d="M 0,0 H 2834.65 V 4098.08 H 0 Z"
           id="path9298" />
      </g>
    </clipPath>
    <clipPath
       clipPathUnits="userSpaceOnUse"
       id="clipPath9299">
      <g
         id="g9300">
        <path
           d="M 0,0 H 2834.65 V 4098.08 H 0 Z"
           id="path9299" />
      </g>
    </clipPath>
    <clipPath
       clipPathUnits="userSpaceOnUse"
       id="clipPath9300">
      <g
         id="g9301">
        <path
           d="M 0,0 H 2834.65 V 4098.08 H 0 Z"
           id="path9300" />
      </g>
    </clipPath>
    <clipPath
       clipPathUnits="userSpaceOnUse"
       id="clipPath9301">
      <g
         id="g9302">
        <path
           d="M 0,0 H 2834.65 V 4098.08 H 0 Z"
           id="path9301" />
      </g>
    </clipPath>
    <clipPath
       clipPathUnits="userSpaceOnUse"
       id="clipPath9302">
      <g
         id="g9303">
        <path
           d="M 0,0 H 2834.65 V 4098.08 H 0 Z"
           id="path9302" />
      </g>
    </clipPath>
    <clipPath
       clipPathUnits="userSpaceOnUse"
       id="clipPath9303">
      <g
         id="g9304">
        <path
           d="M 0,0 H 2834.65 V 4098.08 H 0 Z"
           id="path9303" />
      </g>
    </clipPath>
    <clipPath
       clipPathUnits="userSpaceOnUse"
       id="clipPath9304">
      <g
         id="g9305">
        <path
           d="M 0,0 H 2834.65 V 4098.08 H 0 Z"
           id="path9304" />
      </g>
    </clipPath>
    <clipPath
       clipPathUnits="userSpaceOnUse"
       id="clipPath9305">
      <g
         id="g9306">
        <path
           d="M 0,0 H 2834.65 V 4098.08 H 0 Z"
           id="path9305" />
      </g>
    </clipPath>
    <clipPath
       clipPathUnits="userSpaceOnUse"
       id="clipPath9306">
      <g
         id="g9307">
        <path
           d="M 0,0 H 2834.65 V 4098.08 H 0 Z"
           id="path9306" />
      </g>
    </clipPath>
    <clipPath
       clipPathUnits="userSpaceOnUse"
       id="clipPath9307">
      <g
         id="g9308">
        <path
           d="M 0,0 H 2834.65 V 4098.08 H 0 Z"
           id="path9307" />
      </g>
    </clipPath>
    <clipPath
       clipPathUnits="userSpaceOnUse"
       id="clipPath9308">
      <g
         id="g9309">
        <path
           d="M 0,0 H 2834.65 V 4098.08 H 0 Z"
           id="path9308" />
      </g>
    </clipPath>
    <clipPath
       clipPathUnits="userSpaceOnUse"
       id="clipPath9309">
      <g
         id="g9310">
        <path
           d="M 0,0 H 2834.65 V 4098.08 H 0 Z"
           id="path9309" />
      </g>
    </clipPath>
    <clipPath
       clipPathUnits="userSpaceOnUse"
       id="clipPath9310">
      <g
         id="g9311">
        <path
           d="M 0,0 H 2834.65 V 4098.08 H 0 Z"
           id="path9310" />
      </g>
    </clipPath>
    <clipPath
       clipPathUnits="userSpaceOnUse"
       id="clipPath9311">
      <g
         id="g9312">
        <path
           d="M 0,0 H 2834.65 V 4098.08 H 0 Z"
           id="path9311" />
      </g>
    </clipPath>
    <clipPath
       clipPathUnits="userSpaceOnUse"
       id="clipPath9312">
      <g
         id="g9313">
        <path
           d="M 0,0 H 2834.65 V 4098.08 H 0 Z"
           id="path9312" />
      </g>
    </clipPath>
    <clipPath
       clipPathUnits="userSpaceOnUse"
       id="clipPath9313">
      <g
         id="g9314">
        <path
           d="M 0,0 H 2834.65 V 4098.08 H 0 Z"
           id="path9313" />
      </g>
    </clipPath>
    <clipPath
       clipPathUnits="userSpaceOnUse"
       id="clipPath9314">
      <g
         id="g9315">
        <path
           d="M 0,0 H 2834.65 V 4098.08 H 0 Z"
           id="path9314" />
      </g>
    </clipPath>
    <clipPath
       clipPathUnits="userSpaceOnUse"
       id="clipPath9315">
      <g
         id="g9316">
        <path
           d="M 0,0 H 2834.65 V 4098.08 H 0 Z"
           id="path9315" />
      </g>
    </clipPath>
    <clipPath
       clipPathUnits="userSpaceOnUse"
       id="clipPath9316">
      <g
         id="g9317">
        <path
           d="M 0,0 H 2834.65 V 4098.08 H 0 Z"
           id="path9316" />
      </g>
    </clipPath>
    <clipPath
       clipPathUnits="userSpaceOnUse"
       id="clipPath9317">
      <g
         id="g9318">
        <path
           d="M 0,0 H 2834.65 V 4098.08 H 0 Z"
           id="path9317" />
      </g>
    </clipPath>
    <clipPath
       clipPathUnits="userSpaceOnUse"
       id="clipPath9318">
      <g
         id="g9319">
        <path
           d="M 0,0 H 2834.65 V 4098.08 H 0 Z"
           id="path9318" />
      </g>
    </clipPath>
  </defs>
  <g
     id="g9419"
     transform="matrix(1.9522092,0,0,1.9522092,-137.20294,-1396.1713)">
    <path
       d="m 299.045,748.2002 c 0.211,-2.101 0.817,-4.087 1.824,-5.937 2.241,-4.117 5.589,-6.935 10.095,-8.258 4.596,-1.349 9.01,-0.775 13.19,1.566 0.362,0.202 0.707,0.435 1.052,0.665 0.648,0.434 0.824,1.214 0.423,1.833 -0.392,0.605 -1.173,0.79 -1.815,0.378 -1.162,-0.746 -2.364,-1.407 -3.69,-1.81 -4.507,-1.37 -8.732,-0.78 -12.595,1.941 -2.838,2 -4.727,4.711 -5.543,8.093 -1.042,4.314 -0.269,8.311 2.388,11.886 2.324,3.128 5.444,5.004 9.298,5.582 3.133,0.471 6.109,-0.086 8.897,-1.607 0.163,-0.089 0.323,-0.184 0.487,-0.269 0.714,-0.373 1.485,-0.168 1.841,0.486 0.359,0.662 0.117,1.4 -0.585,1.815 -1.17,0.69 -2.403,1.237 -3.703,1.63 -1.154,0.349 -2.331,0.575 -3.533,0.666 -0.059,0.005 -0.136,-0.027 -0.164,0.062 h -0.394 c -0.04,-0.044 -0.094,-0.03 -0.144,-0.034 -0.062,0.007 -0.131,-0.019 -0.184,0.034 h -0.657 c -0.131,-0.053 -0.262,-0.053 -0.394,0 h -0.328 c -0.044,-0.041 -0.087,-0.041 -0.131,0 h -0.328 c -0.514,-0.093 -1.038,-0.076 -1.554,-0.168 -2.95,-0.526 -5.577,-1.742 -7.876,-3.662 -1.731,-1.446 -3.14,-3.163 -4.179,-5.165 -0.898,-1.729 -1.517,-3.555 -1.718,-5.506 -0.013,-0.13 -0.002,-0.262 -0.003,-0.393 -0.016,-0.112 0.035,-0.231 -0.034,-0.338 v -3.151 c 0.078,-0.103 -0.005,-0.233 0.057,-0.339"
       fill="#1e7994"
       id="path5723"
       clip-path="url(#clipPath9318)" />
    <path
       d="m 315.139,766.92019 c 0.131,-0.107 0.263,-0.093 0.394,0 z"
       fill="#1b1f22"
       id="path5724"
       clip-path="url(#clipPath9317)" />
    <path
       d="m 299.045,748.2002 c 0.025,0.12 0.032,0.238 -0.057,0.339 v -0.329 c 0.018,-0.006 0.037,-0.01 0.057,-0.01"
       fill="#4d5051"
       id="path5725"
       clip-path="url(#clipPath9316)" />
    <path
       d="m 299.045,752.03 c -0.02,0 -0.039,-0.004 -0.057,-0.01 v -0.329 c 0.089,0.101 0.082,0.219 0.057,0.339"
       fill="#4d5051"
       id="path5726"
       clip-path="url(#clipPath9315)" />
    <path
       d="m 316.189,766.92019 c 0.048,-0.084 0.125,-0.064 0.2,-0.057 0.019,0.014 0.025,0.026 0.018,0.039 -0.007,0.012 -0.014,0.018 -0.021,0.018 z"
       fill="#414446"
       id="path5727"
       clip-path="url(#clipPath9314)" />
    <path
       d="m 314.679,766.92019 c 0.044,-0.098 0.088,-0.082 0.131,0 z"
       fill="#6f7374"
       id="path5728"
       clip-path="url(#clipPath9313)" />
    <path
       d="m 316.386,766.92019 c 0,-0.019 10e-4,-0.038 0.003,-0.057 0.054,-0.006 0.108,-0.013 0.128,0.057 z"
       fill="#565a5b"
       id="path5729"
       clip-path="url(#clipPath9312)" />
    <path
       d="m 316.041,756.54006 c -1.087,-0.003 -1.903,-0.324 -2.583,-0.967 -2.265,-2.142 -4.529,-4.286 -6.787,-6.436 -0.587,-0.558 -0.615,-1.358 -0.097,-1.901 0.526,-0.553 1.32,-0.55 1.929,0.026 2.202,2.082 4.399,4.169 6.597,6.254 0.588,0.558 0.977,0.535 1.49,-0.103 4.44,-5.521 8.878,-11.043 13.317,-16.564 0.219,-0.272 0.415,-0.566 0.747,-0.722 0.549,-0.258 1.192,-0.12 1.576,0.34 0.409,0.491 0.417,1.142 -0.008,1.688 -0.537,0.69 -1.093,1.366 -1.641,2.048 -4.021,5.001 -8.044,10.002 -12.063,15.005 -0.677,0.843 -1.548,1.289 -2.477,1.332"
       fill="#72532f"
       id="path5730"
       clip-path="url(#clipPath9311)" />
    <path
       d="m 332.541,749.91018 c -0.075,3.702 -1.012,6.681 -2.771,9.407 -0.455,0.706 -1.223,0.906 -1.895,0.487 -0.602,-0.375 -0.765,-1.171 -0.346,-1.847 0.6,-0.967 1.141,-1.96 1.526,-3.034 0.972,-2.708 1.108,-5.46 0.435,-8.254 -0.14,-0.582 -0.033,-1.093 0.454,-1.472 0.754,-0.587 1.828,-0.198 2.069,0.753 0.367,1.447 0.542,2.92 0.528,3.96"
       fill="#1e7994"
       id="path5731"
       clip-path="url(#clipPath9310)" />
    <path
       stroke-width="1.9"
       stroke-linecap="butt"
       stroke-miterlimit="10"
       stroke-linejoin="miter"
       fill="none"
       stroke="#72532f"
       d="m 352.882,754.5801 v 112.204"
       id="path5732"
       clip-path="url(#clipPath9309)" />
    <path
       d="m 162.142,833.29006 c 4.118,0.091 10.656,0.003 14.691,-0.015 -0.108,2.47 -1.799,5.058 -1.799,5.058 l -6.387,-0.225 c -1.55,-0.282 1.096,-2.57 1.096,-2.57 -1.481,0.41 -9.024,0.273 -9.179,1.035 0,0 4.919,2.035 4.233,2.318 -1.632,0.67 -8.832,-0.079 -11.008,-0.185 -1.748,-0.07 1.975,-1.89 2.583,-3.702 0.606,-1.811 3.874,-1.757 5.77,-1.714"
       fill="#737d94"
       id="path5733"
       clip-path="url(#clipPath9308)" />
    <path
       stroke-width="1.712"
       stroke-linecap="butt"
       stroke-miterlimit="4"
       stroke-linejoin="miter"
       fill="none"
       stroke="#000000"
       d="m 93.1119,849.77 c 1.869,0.641 3.968,1.19 6.233,1.657 20.886,4.299 55.98,1.626 58.355,1.05 3.608,-0.871 7.85,-2.573 13.321,-8.848 5.452,-6.256 6.684,-8.79 5.829,-17.428 -0.811,-10.414 -8.278,-20.721 -5.751,-31.929 3.581,-4.22 10.529,-20.572 9.112,-18.111 -1.499,9.299 -4.83,17.086 -6.978,18.315 3.237,3.022 19.024,16.338 30.666,17.507 l 20.772,-10.486 c -7.807,4.644 -21.974,11.181 -31.774,18.429 -14.513,12.671 -9.224,26.564 9.433,42.983 5.338,4.993 3.414,3.992 11.239,3.182 5.617,-0.534 12.019,-0.868 17.225,-1.508 3.963,-0.485 6.469,-0.968 8.635,-4.63 2.604,-4.399 2.628,-9.13 0.365,-14.003 -1.159,-2.493 -0.971,-3.025 -4.133,-2.512 l -12.176,1.978 c 11.454,-4.038 24.673,-6.645 35.333,-11.705 12.394,-5.887 19.373,-14.926 20.854,-29.939 3.683,-23.781 -7.938,-38.391 -24.902,-49.997 -20.192,-13.818 -59.552,-33.137 -78.172,-36.359 -44.855,-7.764 -58.436,18.369 -64.021,43.817 -2.031,9.375 -0.933,26.245 -6.98,30.812 -3.115,1.602 -4.948,-1.229 -4.302,4.794 1.008,6.059 -5.54,3.85 -9.269,3.771 -4.712,-0.054 -11.909,7.024 -4.791,19.01 l 7.625,12.843 c 3.246,5.073 2.448,3.914 0.646,9.661 -6.251,-1.492 -2.394,7.646 -2.394,7.646 z"
       id="path5734"
       clip-path="url(#clipPath9307)" />
    <path
       d="m 95.5245,821.1001 c 2.455,4.615 4.502,8.019 6.939,10.902 3.899,4.615 8.501,7.743 13.298,10.344 4.294,2.324 3.235,-0.322 0.167,-1.754 -4.004,-1.869 -14.376,-11.451 -18.408,-20.171 -1.365,-2.958 -5.261,-5.474 -1.996,0.679"
       fill="#737d94"
       id="path5735"
       clip-path="url(#clipPath9306)" />
    <path
       d="m 141.031,836.4302 c -6.882,-5.577 -9.768,-11.382 -11.882,-20.284 -1.111,-4.755 0.725,-2.927 1.732,0.304 1.141,3.665 4.479,10.953 12.422,19.321 2.242,2.364 2.798,5.431 -2.272,0.659"
       fill="#737d94"
       id="path5736"
       clip-path="url(#clipPath9305)" />
    <path
       d="m 123.442,788.91018 c 6.23,11.751 11.196,23.002 18.688,35.26 4.108,6.56 16.184,3.062 20.817,1.663 -9.837,-1.283 -16.412,0.926 -21.124,-7.239 l -17.131,-29.982 c -2.518,-4.293 -4.193,-5.257 -1.25,0.298"
       fill="#737d94"
       id="path5737"
       clip-path="url(#clipPath9304)" />
    <path
       d="m 194.987,806.55007 c -7.133,-5.256 -10.28,-10.92 -12.804,-19.713 -1.329,-4.7 0.592,-2.959 1.745,0.224 1.311,3.605 4.979,10.735 13.298,18.727 2.349,2.258 3.047,5.295 -2.239,0.762"
       fill="#737d94"
       id="path5738"
       clip-path="url(#clipPath9303)" />
    <path
       d="m 208.016,738.98 c 14.364,11.727 28.521,24.489 43.562,32.842 -13.16,-4.06 -29.192,-16.361 -43.899,-31.328 -3.419,-3.292 -4.605,-5.547 0.337,-1.514"
       fill="#737d94"
       id="path5739"
       clip-path="url(#clipPath9302)" />
    <path
       d="m 211.372,846.06008 c -6.262,-1.441 -15.686,-3.714 -21.97,-10.365 -3.338,-3.562 -0.905,-3.389 1.583,-1.095 2.819,2.604 9.986,6.408 21.046,9.682 3.125,0.925 4.059,2.865 -0.659,1.778"
       id="path5740"
       clip-path="url(#clipPath9301)" />
    <path
       d="m 223.485,845.41018 c -3.829,4.63 -8.132,6.007 -6.19,8.92 0.407,0.613 1.089,1.29 2.109,2.082 2.397,1.517 0.886,3.071 -1.575,1.308 -0.932,-0.665 -2.121,-1.493 -2.904,-2.65 -2.961,-5.227 4.258,-7.023 8.56,-9.66"
       id="path5741"
       clip-path="url(#clipPath9300)" />
    <path
       d="m 211.217,823.8501 c 8.401,0.965 7.424,-0.497 12.364,6.53 l -0.476,-6.02 c 0.142,-5.473 -10.571,-1.298 -11.888,-0.51"
       fill="#737d94"
       id="path5742"
       clip-path="url(#clipPath9299)" />
    <path
       d="m 224.073,813.07009 c 17.896,2.704 17.234,5.41 23.642,8.114 l -20.702,2.1 c 11.236,0.145 22.101,1.274 33.713,0.418 -4.427,-2.982 -4.312,-2.412 -0.483,-3.996 l 6.918,-2.858 -14.983,0.607 c -5.146,0.088 -6.399,-0.121 -11.793,-2.934 -5.477,-2.852 -10.211,-1.723 -16.312,-1.451"
       id="path5743"
       clip-path="url(#clipPath9298)" />
    <path
       d="m 146.286,732.76 c -4.772,4.667 -7.236,9.197 -9.84,14.564 l 0.538,-5.75 c -5.963,10.204 -9.23,17.565 -11.697,27.915 -1.075,4.517 -2.507,2.126 -1.836,-0.462 3.537,-16.221 9.818,-29.817 22.243,-38.783 3.878,-2.797 3.398,-0.233 0.592,2.516"
       fill="#737d94"
       id="path5744"
       clip-path="url(#clipPath9297)" />
    <path
       d="m 160.813,739.24 c 16.876,7.832 26.941,24.953 38.228,45.352 4.87,8.802 0.522,7.131 -3.183,0.816 -3.65,-6.214 -20.939,-37.12 -35.858,-42.669 -8.426,-3.135 -6.566,-6.925 0.813,-3.499"
       fill="#737d94"
       id="path5745"
       clip-path="url(#clipPath9296)" />
    <path
       d="m 283.409,796.8301 7.998,2.737 c -4.075,12.336 -4.148,28.791 -0.234,42.248 -1.101,-0.206 -4.399,-0.464 -5.115,-0.653 -7.746,-3.334 -5.686,-7.039 -1.556,-13.535 2.682,-3.88 -1.071,-6.42 -4.922,-3.689 -1.29,0.913 -2.804,1.89 -3.698,2.876 -1.478,1.627 -1.263,2.361 0.445,2.488 0.865,0.064 2.058,-0.067 2.449,-0.097 -2,2.822 -0.139,9.831 2.676,12.395 -3.635,0.364 -15.953,-0.24 -25.347,-1.211 -5.277,-0.547 -4.182,-1.177 -0.404,-2.619 4.852,-1.848 11.803,-5.343 16.952,-9.818 8.936,-9.346 10.617,-20.084 10.756,-31.122"
       id="path5746"
       clip-path="url(#clipPath9295)" />
    <path
       d="m 292.779,802.6301 c 0.925,-2.048 1.195,-2.166 5.027,-2.187 1.773,-0.01 3.742,0.088 4.382,0.218 2.749,0.555 3.653,0.813 5.401,1.541 0.418,0.176 0.87,0.319 1.004,0.319 0.67,0 3.744,2.094 5.067,3.453 1.49,1.529 3.493,4.281 3.493,4.803 0,0.149 0.145,0.391 0.324,0.54 0.598,0.497 1.618,4.093 1.879,6.633 0.306,2.951 0.294,4.621 -0.043,6.123 -0.182,0.813 -0.274,1.629 -0.204,1.811 0.298,0.777 -1.186,4.967 -2.488,7.03 -1.674,2.649 -4.229,5.337 -5.671,5.969 -3.726,1.629 -5.149,2.108 -7.837,2.645 -1.784,0.355 -4.244,0.489 -6.563,0.462 -2.318,-0.028 -3.046,-0.707 -3.841,-2.283 -0.783,-1.544 -2.473,-5.248 -2.37,-18.611 0.104,-13.366 1.59,-16.585 2.44,-18.466 m 0.537,20.014 c 0.221,1.153 0.264,1.207 0.84,1.073 0.826,-0.194 0.877,-0.269 1.062,-1.562 l 0.161,-1.131 -0.889,0.175 c -0.488,0.097 -1.02,0.18 -1.177,0.183 -0.161,0.005 -0.276,0.018 -0.261,0.03 0.018,0.009 0.136,0.564 0.264,1.232 m 0.109,3.865 c 0.043,0.043 0.413,0.009 0.822,-0.073 0.705,-0.142 0.753,-0.215 0.82,-1.277 l 0.073,-1.126 -0.753,0.152 c -0.413,0.082 -0.798,0.197 -0.855,0.255 -0.125,0.124 -0.222,1.957 -0.11,2.069 z m 0,-6.399 c 0.085,0.449 0.225,0.528 0.838,0.468 0.837,-0.083 1.044,-0.404 1.068,-1.66 0.014,-0.883 0.012,-0.89 -0.738,-0.729 -1.287,0.277 -1.438,0.522 -1.171,1.921 z m 0.201,9.151 c 0.075,0.073 0.43,0.033 0.788,-0.094 0.565,-0.194 0.668,-0.37 0.737,-1.253 0.086,-1.09 -0.251,-1.499 -0.745,-0.901 -0.153,0.182 -0.42,0.333 -0.595,0.333 -0.216,0 -0.322,0.288 -0.322,0.89 0,0.488 0.061,0.95 0.137,1.025 m 0.042,-12.207 c 0.082,0.498 1.156,0.92 1.486,0.586 0.146,-0.142 0.268,-1.505 0.216,-2.4 -0.036,-0.643 -0.759,-0.652 -1.854,-0.021 -0.048,0.027 0.043,0.21 0.204,0.404 0.185,0.227 0.215,0.46 0.078,0.646 -0.115,0.158 -0.175,0.513 -0.13,0.785 m 0.452,-3.037 c 0.355,0.08 0.771,0.18 0.919,0.225 0.34,0.103 0.54,-0.404 0.54,-1.363 0,-0.683 -0.078,-0.758 -1.004,-0.974 l -1.004,-0.233 -0.052,1.102 c -0.046,1.034 -0.012,1.11 0.601,1.243 m -0.106,20.162 c 1.608,0.495 1.672,0.449 1.571,-1.149 -0.07,-1.111 -0.497,-1.387 -1.241,-0.804 -0.661,0.521 -0.876,1.783 -0.33,1.953 m -0.13,-2.988 c 0.075,0.386 0.227,0.461 0.779,0.379 0.644,-0.094 0.685,-0.167 0.685,-1.144 0,-0.901 -0.054,-1.019 -0.406,-0.874 -0.224,0.091 -0.589,0.218 -0.813,0.282 -0.395,0.116 -0.443,0.371 -0.245,1.357 m 0.051,-20.184 c 0.221,0.225 1.708,0.807 1.805,0.71 0.158,-0.157 0.455,-2.363 0.358,-2.651 -0.112,-0.343 -0.379,-0.349 -1.496,-0.04 -0.791,0.222 -0.861,0.307 -0.834,1.044 0.018,0.44 0.091,0.862 0.167,0.937 m 0.443,24.608 c 0.215,0.27 0.676,0.543 1.029,0.603 0.533,0.094 0.637,0.031 0.637,-0.391 0,-0.631 -0.419,-1.059 -1.032,-1.053 -0.846,0.007 -1.065,0.298 -0.634,0.841 m -0.036,-27.584 c 0.064,0.161 0.467,0.291 0.901,0.291 0.834,0 1.265,-0.473 1.265,-1.39 0,-0.436 -0.095,-0.473 -0.871,-0.336 -0.48,0.085 -1.002,0.319 -1.162,0.518 -0.306,0.392 -0.319,0.462 -0.133,0.917 m 0.454,-1.96 c 0.216,0.212 1.29,0.201 1.633,-0.019 0.148,-0.094 0.337,-0.433 0.419,-0.751 0.139,-0.565 0.115,-0.577 -0.911,-0.498 -0.579,0.048 -1.055,0.17 -1.055,0.275 0,0.104 -0.055,0.334 -0.121,0.511 -0.07,0.175 -0.053,0.394 0.035,0.482 m 0.377,32.815 c 0.158,0.127 0.576,0.282 0.928,0.345 0.495,0.088 0.637,0.024 0.637,-0.288 0,-0.604 -0.607,-0.998 -1.274,-0.831 -0.64,0.161 -0.737,0.422 -0.291,0.774 m -0.234,-1.317 c 0.03,0.012 0.398,0.061 0.813,0.115 0.944,0.124 1.05,-0.471 0.158,-0.877 -0.482,-0.218 -0.637,-0.207 -0.81,0.064 -0.204,0.321 -0.282,0.667 -0.161,0.698 m 0.267,-33.285 c 0.598,0.231 1.997,-0.118 1.997,-0.498 0,-0.461 -1.702,-0.455 -2.088,0.006 -0.23,0.282 -0.215,0.374 0.091,0.492 m 0.346,20.623 c 0.151,0.989 0.51,1.207 1.554,0.946 0.497,-0.124 0.561,-0.266 0.561,-1.295 0,-1.15 -0.291,-1.471 -0.834,-0.925 -0.128,0.127 -0.514,0.254 -0.859,0.282 -0.346,0.027 -0.613,0.055 -0.595,0.061 0.015,0.002 0.097,0.421 0.173,0.931 m 0.722,15.25 c 0.456,0.066 0.695,0.003 0.695,-0.189 0,-0.351 -0.437,-0.518 -0.986,-0.376 -0.628,0.161 -0.479,0.449 0.291,0.565 m -0.488,-9.382 c 0.076,0.119 0.53,0.289 1.01,0.376 0.838,0.155 0.871,0.134 0.868,-0.488 0,-0.358 -0.064,-0.874 -0.14,-1.15 -0.124,-0.474 -0.188,-0.486 -0.982,-0.209 -0.82,0.282 -1.132,0.891 -0.756,1.471 m 0.109,-2.133 c 0.191,0.073 0.588,0.097 0.883,0.058 0.477,-0.07 0.549,-0.222 0.609,-1.287 l 0.07,-1.21 -0.88,0.303 c -0.782,0.27 -0.891,0.401 -0.955,1.153 -0.049,0.589 0.033,0.892 0.273,0.983 m 0.121,-5.474 c 1.156,0 1.596,-0.388 1.684,-1.492 0.094,-1.165 -0.052,-1.262 -1.092,-0.723 -0.358,0.186 -0.716,0.295 -0.798,0.246 -0.082,-0.051 -0.17,0.374 -0.201,0.938 -0.045,0.892 0.01,1.031 0.407,1.031 m -0.146,-3.061 c 0.171,0.143 0.626,0.176 1.102,0.079 0.801,-0.164 0.81,-0.182 0.88,-1.49 0.082,-1.559 -0.221,-1.709 -1.499,-0.734 -0.822,0.628 -1.056,1.669 -0.483,2.145 m 0.811,-3.101 c 1.013,-0.176 1.45,-0.635 1.45,-1.511 0,-0.622 -0.009,-0.625 -0.986,-0.383 -1.125,0.28 -1.326,0.489 -1.332,1.396 0,0.626 0.03,0.643 0.868,0.498 m -0.72,-2.709 c 0.067,0.157 0.468,0.288 0.893,0.288 1.353,0 1.508,-0.158 1.508,-1.517 0,-0.683 -0.088,-1.293 -0.195,-1.359 -0.142,-0.089 -1.781,0.613 -2.039,0.874 -0.13,0.13 -0.261,1.483 -0.167,1.714 m 0.605,-11.355 c 0.891,-0.087 0.8,-0.521 -0.119,-0.567 -0.416,-0.021 -0.637,0.085 -0.637,0.304 0,0.239 0.218,0.315 0.756,0.263 m 0.16,38.053 c 0.413,0.145 0.707,0.157 0.707,0.033 0,-0.24 -1.114,-0.579 -1.298,-0.395 -0.064,0.064 0.203,0.228 0.591,0.362 m -0.23,-5.189 c 0.24,0.649 1.866,0.759 1.866,0.127 0,-0.716 -0.431,-1.626 -0.765,-1.626 -0.552,0 -1.286,0.998 -1.101,1.499 m 0.3,-33.752 c 0.422,-0.007 0.456,-0.049 0.173,-0.228 -0.449,-0.291 -0.695,-0.291 -0.695,0 0,0.127 0.234,0.231 0.522,0.228 m 0.115,35.527 c 0.097,0.015 0.513,0.042 0.929,0.057 0.637,0.028 0.752,-0.048 0.752,-0.491 0,-0.577 -0.619,-0.701 -1.404,-0.279 -0.447,0.237 -0.611,0.661 -0.277,0.713 m 0.422,-29.022 c 0.965,0.367 1.211,0.27 1.493,-0.583 0.343,-1.044 0.143,-1.344 -0.777,-1.155 -1.302,0.269 -1.744,1.347 -0.716,1.738 m -0.188,30.415 c 0.094,0.015 0.346,0.009 0.559,-0.013 0.212,-0.021 0.452,0.073 0.536,0.207 0.231,0.376 0.507,0.288 0.516,-0.164 0.013,-0.744 -0.346,-0.965 -1.098,-0.68 -0.64,0.243 -0.914,0.589 -0.513,0.65 m 0.952,-32.742 c 0.744,0 0.96,-0.097 1.087,-0.492 0.2,-0.637 -0.191,-0.874 -1.129,-0.683 -0.525,0.107 -0.758,0.298 -0.81,0.662 -0.066,0.458 0.027,0.513 0.852,0.513 m -0.509,33.952 c 0.24,0.24 1.469,0.182 1.469,-0.07 0,-0.34 -0.847,-0.719 -1.256,-0.561 -0.389,0.149 -0.465,0.377 -0.213,0.631 m 0.124,-35.854 c 0.441,0.442 1.53,0.339 1.803,-0.17 0.328,-0.613 0.349,-0.595 -0.677,-0.595 -1.056,0 -1.553,0.336 -1.126,0.765 m 0.869,36.703 c 0.39,0 0.71,-0.102 0.71,-0.23 0,-0.303 -1.09,-0.303 -1.278,0 -0.082,0.133 0.154,0.23 0.568,0.23 m -0.277,-12.616 c 0.225,0.07 0.64,0.219 0.928,0.334 0.288,0.115 0.528,0.134 0.535,0.04 0.009,-0.094 0.066,-0.81 0.136,-1.593 0.07,-0.783 0.039,-1.474 -0.07,-1.541 -0.106,-0.064 -0.585,0.051 -1.064,0.261 -0.814,0.352 -0.871,0.442 -0.871,1.374 0,0.746 0.102,1.028 0.406,1.122 z m -0.04,-25.341 c 0.72,0.276 1.724,0.155 1.724,-0.206 0,-0.258 -0.273,-0.349 -1.047,-0.349 -1.035,0 -1.38,0.286 -0.677,0.555 m 0.619,22.092 c 0.72,-0.036 0.759,-0.088 0.829,-1.05 0.069,-0.955 0.045,-1.001 -0.464,-0.868 -0.295,0.079 -0.667,0.146 -0.826,0.149 -0.182,0 -0.291,0.34 -0.291,0.904 0,0.868 0.025,0.899 0.752,0.865 m -0.461,-2.576 c 0.92,0.328 1.515,-0.276 1.548,-1.568 0.012,-0.495 -0.092,-0.638 -0.461,-0.638 -0.917,0 -1.378,0.431 -1.378,1.29 0,0.449 0.13,0.858 0.291,0.916 m -0.136,-3.308 c 0.079,0.283 0.346,0.404 0.879,0.404 0.881,0 1.054,-0.276 1.054,-1.671 0,-0.932 0,-0.938 -0.747,-0.79 -0.409,0.082 -0.822,0.228 -0.91,0.322 -0.242,0.246 -0.403,1.266 -0.276,1.735 m 0.661,13.997 c 0.34,-0.084 0.75,-0.048 0.907,0.082 0.216,0.179 0.274,0.11 0.228,-0.279 -0.027,-0.285 -0.064,-0.707 -0.076,-0.937 -0.018,-0.334 -0.179,-0.407 -0.774,-0.349 -0.67,0.063 -0.761,0.161 -0.828,0.855 -0.073,0.743 -0.046,0.777 0.543,0.628 m -0.409,-16.806 c 1.45,0.267 1.869,-0.033 1.896,-1.368 0.012,-0.604 -0.075,-0.753 -0.446,-0.753 -0.255,0 -0.464,0.104 -0.464,0.231 0,0.128 -0.161,0.233 -0.355,0.233 -0.486,0 -1.086,1.572 -0.631,1.654 z m 0,-14.4 c 0.094,0.009 0.403,0.06 0.683,0.112 0.282,0.052 0.573,-0.006 0.652,-0.133 0.082,-0.134 -0.2,-0.228 -0.683,-0.228 -0.455,0 -0.828,0.051 -0.828,0.115 0,0.064 0.079,0.124 0.176,0.134 m 0.579,35.409 c 0.392,0.297 1.736,0.361 1.899,0.094 0.219,-0.355 -0.294,-1.417 -0.685,-1.417 -0.419,0 -1.505,0.667 -1.505,0.928 0,0.097 0.13,0.277 0.291,0.395 m 0.407,-26.38 c 0.382,0 0.773,0.016 0.868,0.034 0.097,0.022 0.236,-0.346 0.312,-0.81 0.128,-0.777 0.091,-0.847 -0.422,-0.847 -0.873,0 -1.456,0.422 -1.456,1.053 0,0.48 0.112,0.57 0.698,0.57 m -0.303,27.888 c 0.103,0.051 0.549,0.085 0.995,0.082 0.849,-0.013 1.28,-0.64 0.612,-0.895 -0.719,-0.277 -2.257,0.503 -1.607,0.813 m 0.403,1.025 c 0.2,0.076 0.537,0.073 0.749,-0.009 0.215,-0.081 0.474,-0.015 0.577,0.149 0.143,0.225 0.191,0.203 0.194,-0.082 0,-0.406 -0.449,-0.664 -1.162,-0.664 -0.567,0 -0.819,0.427 -0.358,0.606 m 0.143,0.817 c 1.155,0.102 1.568,0.088 1.483,-0.052 -0.188,-0.306 -1.332,-0.467 -1.574,-0.225 -0.173,0.173 -0.146,0.255 0.091,0.277 m 0.033,-34.414 c 0.403,0.403 1.501,0.342 1.669,-0.091 0.3,-0.78 0.152,-1.023 -0.625,-1.023 -0.692,0 -1.324,0.331 -1.324,0.695 0,0.076 0.129,0.264 0.28,0.419 m 0.336,-1.738 c 0.334,0.333 1.421,0.16 1.527,-0.247 0.085,-0.331 -0.048,-0.406 -0.707,-0.406 -0.777,0 -1.165,0.309 -0.82,0.653 m 0.325,27.686 c 0.264,0.698 0.595,0.846 1.512,0.673 0.649,-0.121 0.797,-0.255 0.797,-0.713 0,-0.676 -0.834,-0.973 -1.844,-0.661 -0.55,0.171 -0.626,0.282 -0.465,0.701 m -0.088,-1.89 c 0.08,0.397 0.247,0.455 1.092,0.385 0.944,-0.073 0.993,-0.112 0.887,-0.695 -0.064,-0.339 -0.222,-0.686 -0.349,-0.77 -0.28,-0.182 -1.32,0.251 -1.32,0.552 0,0.112 -0.106,0.143 -0.234,0.064 -0.127,-0.08 -0.218,-0.113 -0.2,-0.073 0.018,0.039 0.073,0.282 0.124,0.537 m 0.713,-5.134 c 0.48,0.304 0.95,0.509 1.044,0.452 0.097,-0.054 0.176,-0.567 0.176,-1.14 0,-0.85 -0.091,-1.072 -0.5,-1.224 -0.277,-0.1 -0.747,-0.136 -1.044,-0.078 -0.419,0.078 -0.543,0.255 -0.543,0.767 0,0.516 0.194,0.792 0.867,1.223 m -0.579,-2.977 c 0.176,0.067 0.628,0.146 1.001,0.173 0.646,0.046 0.686,0 0.753,-0.95 l 0.073,-1.001 -1.001,0.073 c -0.941,0.067 -1.005,0.115 -1.072,0.828 -0.048,0.483 0.042,0.799 0.246,0.877 m 0.221,-2.746 c 0.167,0.131 0.58,0.289 0.923,0.349 0.698,0.128 0.877,-0.224 0.882,-1.729 0,-0.953 -0.239,-1.068 -1.262,-0.601 -0.324,0.146 -0.588,0.452 -0.588,0.677 0,0.224 -0.058,0.555 -0.127,0.737 -0.07,0.182 0.008,0.437 0.172,0.567 m 0.185,-16.171 c 0.256,0 0.541,0.024 0.635,0.057 0.094,0.03 0.206,-0.124 0.248,-0.349 0.061,-0.316 -0.078,-0.407 -0.634,-0.407 -0.479,0 -0.713,0.116 -0.713,0.35 0,0.194 0.206,0.349 0.464,0.349 m -0.048,31.087 c 0.061,0.519 0.176,0.58 1.059,0.58 0.91,0 0.992,-0.048 1.037,-0.631 0.055,-0.722 -0.588,-1.007 -1.583,-0.704 -0.446,0.136 -0.564,0.31 -0.513,0.755 m 0.398,-32.208 c 0.694,0.15 1.007,0.08 0.755,-0.172 -0.073,-0.076 -0.431,-0.1 -0.792,-0.055 l -0.662,0.079 z m 0.236,10.951 c 0.773,0.298 1.038,0.158 1.038,-0.552 0,-0.586 -0.088,-0.695 -0.58,-0.695 -0.318,0 -0.579,0.097 -0.579,0.212 0,0.118 -0.058,0.365 -0.131,0.553 -0.073,0.188 0.04,0.401 0.252,0.482 m -0.2,-2.096 c 0.085,0.084 0.431,0.154 0.764,0.154 0.507,0 0.616,-0.115 0.661,-0.689 0.056,-0.737 -0.618,-1.32 -1.249,-1.076 -0.331,0.127 -0.462,1.322 -0.176,1.611 m 0.233,27.471 c 0.067,0.173 0.538,0.291 1.141,0.291 0.941,0 1.026,-0.049 1.026,-0.588 0,-0.777 -0.522,-0.941 -1.511,-0.47 -0.446,0.211 -0.801,0.406 -0.792,0.43 0.012,0.028 0.069,0.179 0.136,0.337 m 0.083,-30.448 c 0.127,0.082 0.181,0.234 0.115,0.337 -0.125,0.203 0.4,0.473 0.916,0.473 0.167,0 0.352,-0.197 0.416,-0.44 0.118,-0.443 -0.604,-0.952 -1.347,-0.952 -0.386,0 -0.452,0.366 -0.1,0.582 m 0.831,32.035 c 0.598,0.112 0.898,0.067 1.04,-0.164 0.219,-0.346 0.155,-0.82 -0.097,-0.726 -0.084,0.031 -0.522,0.059 -0.967,0.059 -1.117,0 -1.099,0.621 0.024,0.831 m 0.194,0.791 c 0.44,0 0.861,-0.102 0.94,-0.23 0.088,-0.139 -0.227,-0.233 -0.797,-0.233 -0.516,0 -0.941,0.106 -0.941,0.233 0,0.128 0.358,0.23 0.798,0.23 m 0.043,-35.748 c 0.788,0.622 0.937,0.61 1.071,-0.091 0.136,-0.71 0.033,-0.816 -0.777,-0.816 -0.904,0 -1.014,0.342 -0.294,0.907 m -0.222,-1.526 c 0.228,0.227 1.42,0.188 1.568,-0.055 0.158,-0.251 -0.403,-0.488 -1.162,-0.488 -0.549,0 -0.719,0.23 -0.406,0.543 m 0.491,26.995 c 0.113,0.176 0.519,0.227 1.147,0.143 0.932,-0.124 0.971,-0.164 0.944,-0.901 -0.033,-0.887 -0.377,-1.038 -1.52,-0.683 -0.753,0.233 -0.977,0.801 -0.571,1.441 m 0.222,-2.106 c 0.225,-0.067 0.692,-0.188 1.038,-0.27 0.54,-0.128 0.624,-0.26 0.6,-0.938 -0.033,-0.879 -0.355,-0.992 -1.413,-0.5 -0.495,0.231 -0.626,0.452 -0.629,1.059 0,0.625 0.076,0.749 0.404,0.649 m 0,-5.749 c 0.225,0.111 0.695,0.275 1.047,0.361 l 0.637,0.151 v -1.396 c 0,-1.229 -0.055,-1.398 -0.452,-1.398 -0.246,0 -0.513,0.106 -0.592,0.233 -0.079,0.128 -0.345,0.231 -0.595,0.231 -0.358,0 -0.449,0.164 -0.449,0.804 0,0.531 0.137,0.874 0.404,1.014 m 0.349,-20.163 c 0.631,-0.012 0.68,-0.048 0.291,-0.215 -0.643,-0.276 -1.044,-0.276 -1.044,0 0,0.127 0.337,0.224 0.753,0.215 m -0.301,13.417 c 0.195,0.264 1.39,0.844 1.503,0.732 0.054,-0.055 0.13,-0.619 0.172,-1.257 l 0.076,-1.159 -0.843,-0.07 c -0.811,-0.069 -0.847,-0.039 -0.941,0.756 -0.051,0.455 -0.036,0.904 0.03,0.998 z m -0.039,-2.621 c 0.313,0.31 1.629,0.106 1.778,-0.273 0.191,-0.507 -0.437,-0.993 -1.28,-0.993 -0.507,0 -0.622,0.107 -0.622,0.571 0,0.313 0.054,0.625 0.124,0.695 m 0.221,19.455 c 0.331,0.185 1.676,0.127 1.803,-0.078 0.07,-0.113 0.061,-0.471 -0.022,-0.796 -0.148,-0.597 -0.752,-0.77 -1.587,-0.449 -0.369,0.14 -0.515,1.138 -0.191,1.323 z m 0.559,-21.318 c 0.989,0.492 1.044,0.473 1.214,-0.373 0.172,-0.865 -0.089,-1.111 -1.19,-1.114 -0.647,-0.006 -0.755,0.076 -0.755,0.558 0,0.401 0.212,0.668 0.731,0.929 m -0.325,23.172 c 0.097,0.051 0.571,0.045 1.056,-0.015 0.741,-0.091 0.871,-0.188 0.814,-0.601 -0.08,-0.543 -0.619,-0.731 -1.482,-0.516 -0.536,0.137 -0.797,0.901 -0.388,1.132 m 0.13,-25.46 c 0.171,0.063 0.613,0.14 0.987,0.167 0.586,0.042 0.691,-0.042 0.755,-0.589 0.07,-0.613 0.033,-0.637 -0.986,-0.637 -0.91,0 -1.058,0.064 -1.058,0.471 0,0.258 0.135,0.524 0.302,0.588 m 0.914,27.405 c 0.883,-0.04 0.992,-0.109 1.059,-0.662 0.052,-0.461 -0.055,-0.658 -0.419,-0.773 -0.625,-0.198 -1.627,0.439 -1.627,1.034 0,0.376 0.156,0.438 0.987,0.401 m -0.616,-29.067 c 0.831,0.318 1.429,0.148 1.541,-0.441 0.1,-0.524 0.04,-0.582 -0.658,-0.582 -0.883,0 -1.545,0.768 -0.883,1.023 m 0.501,-3.505 c 0.51,0.288 1.438,0.367 1.581,0.136 0.212,-0.343 -0.325,-0.661 -1.117,-0.667 -0.595,-0.003 -0.865,0.306 -0.464,0.531 m 1.508,24.015 c 0.689,-0.063 0.759,-0.148 0.825,-0.94 0.058,-0.716 0,-0.871 -0.349,-0.865 -0.677,0.012 -1.232,0.577 -1.232,1.253 0,0.568 0.073,0.619 0.756,0.552 m -0.31,-2.276 c 0.913,0 1.069,-0.202 0.983,-1.276 l -0.081,-1.041 -0.674,0.397 c -0.525,0.31 -0.674,0.564 -0.674,1.159 0,0.598 0.097,0.761 0.446,0.761 m 0.206,-6.004 c 0.759,0.288 0.741,0.309 0.741,-0.825 0,-0.822 -0.094,-1.056 -0.461,-1.174 -0.692,-0.219 -0.935,0.051 -0.872,0.968 0.04,0.622 0.189,0.877 0.592,1.031 m -0.479,-3.156 c 0.097,0.131 0.452,0.358 0.789,0.508 0.604,0.264 0.619,0.248 0.704,-0.638 0.091,-0.952 -0.021,-1.074 -0.971,-1.05 -0.592,0.015 -0.889,0.686 -0.522,1.18 m 0.928,13.921 c 0.48,-0.087 0.896,-0.185 0.923,-0.212 0.03,-0.027 -0.012,-0.434 -0.088,-0.907 -0.097,-0.583 -0.261,-0.856 -0.516,-0.85 -0.682,0.013 -1.189,0.598 -1.189,1.378 0,0.747 0.015,0.752 0.87,0.591 m -0.458,-16.45 c 0.222,0.266 0.583,0.552 0.808,0.627 0.339,0.121 0.406,0 0.406,-0.755 0,-0.874 -0.021,-0.896 -0.813,-0.874 -0.901,0.024 -0.998,0.27 -0.401,1.002 m -0.121,-1.845 c 0.379,0.239 1.171,0.102 1.389,-0.234 0.091,-0.149 0.171,-0.555 0.174,-0.904 0,-0.559 -0.085,-0.64 -0.699,-0.64 -0.539,0 -0.755,0.139 -0.928,0.594 -0.294,0.78 -0.285,0.965 0.064,1.184 m 0.288,22.045 c 0.461,0.659 1.278,0.465 1.278,-0.299 0,-0.48 -0.11,-0.556 -0.81,-0.556 -0.905,0 -0.974,0.134 -0.468,0.855 m 0.407,-1.592 c 0.589,-0.058 0.774,-0.194 0.831,-0.613 0.14,-0.971 -0.088,-1.214 -0.877,-0.937 -0.573,0.199 -0.707,0.376 -0.707,0.934 0,0.637 0.055,0.683 0.753,0.616 m -0.191,-22.927 c 0.182,0 0.494,0.064 0.694,0.14 0.28,0.106 0.368,-0.006 0.368,-0.464 0,-0.516 -0.1,-0.604 -0.695,-0.604 -0.543,0 -0.695,0.103 -0.695,0.464 0,0.255 0.145,0.464 0.328,0.464 m -0.055,-1.908 c 0.155,0.158 0.522,0.285 0.816,0.285 0.437,0 0.535,-0.124 0.535,-0.697 0,-0.62 -0.08,-0.696 -0.699,-0.696 -0.382,0 -0.694,0.043 -0.694,0.097 0,0.052 -0.055,0.24 -0.122,0.413 -0.067,0.173 0.009,0.443 0.164,0.598 m 0.206,28.358 c 0.47,0 1.145,-0.483 1.145,-0.82 0,-0.401 -0.32,-0.433 -0.944,-0.1 -0.474,0.252 -0.619,0.92 -0.201,0.92 m 0.565,1.159 c 0.424,0 0.58,-0.122 0.58,-0.465 0,-0.527 -0.089,-0.555 -0.714,-0.221 -0.625,0.334 -0.558,0.686 0.134,0.686 m -0.404,-31.653 c 0.094,0.137 0.352,0.318 0.577,0.401 0.294,0.109 0.407,0.03 0.407,-0.283 0,-0.273 -0.21,-0.467 -0.58,-0.54 -0.598,-0.112 -0.698,-0.009 -0.404,0.422 m 0.629,-2.075 c 0.637,0.246 0.873,-0.046 0.263,-0.322 -0.379,-0.173 -0.607,-0.191 -0.607,-0.043 0,0.127 0.155,0.292 0.344,0.365 m 0.057,18.493 c 0.073,0.467 0.2,0.616 0.449,0.522 0.191,-0.076 0.44,-0.137 0.546,-0.137 0.312,0 0.495,-0.828 0.331,-1.486 -0.085,-0.331 -0.288,-0.601 -0.458,-0.601 -0.337,0 -1.056,0.637 -0.998,0.886 0.017,0.087 0.078,0.455 0.13,0.816 m -0.036,-2.346 c 0.069,0.073 0.321,0.08 0.558,0.019 0.3,-0.079 0.452,-0.38 0.513,-1.02 0.048,-0.498 0.054,-0.907 0.011,-0.907 -0.035,0 -0.327,0.17 -0.643,0.377 -0.522,0.339 -0.77,1.204 -0.443,1.531 z m 0.264,7.677 c 0.087,0.339 0.248,0.391 0.843,0.264 0.949,-0.203 0.932,-0.176 0.752,-1.135 -0.163,-0.877 -0.634,-1.004 -1.386,-0.379 -0.376,0.309 -0.407,0.491 -0.209,1.25 m 0.011,-2.163 c 0.097,0 0.414,-0.067 0.705,-0.146 0.449,-0.118 0.522,-0.279 0.476,-1.041 -0.058,-0.965 -0.051,-0.962 -0.831,-0.752 -0.428,0.115 -0.522,0.303 -0.522,1.041 0,0.494 0.078,0.901 0.172,0.898 m 0.186,-7.965 c 0.203,0.078 0.476,0.033 0.607,-0.097 0.312,-0.31 0.528,-1.912 0.257,-1.912 -0.786,0 -1.538,1.751 -0.864,2.009 m 0.048,12.434 c 0.204,0.904 1.45,0.121 1.45,-0.91 0,-0.443 -0.094,-0.556 -0.366,-0.449 -0.204,0.078 -0.462,0.142 -0.574,0.142 -0.3,0 -0.616,0.749 -0.51,1.217 m 0.231,-15.202 c 0.452,0.174 0.91,-0.084 1.041,-0.588 0.181,-0.695 -0.152,-1.056 -0.817,-0.889 -0.449,0.113 -0.573,0.285 -0.546,0.756 0.016,0.336 0.164,0.661 0.322,0.721 m 0,19.78 c 0.746,-0.011 1.219,-0.336 1.219,-0.834 0,-0.603 -0.248,-0.686 -0.943,-0.312 -0.425,0.224 -0.647,1.152 -0.276,1.146 m 0.379,-1.851 c 0.613,0 0.913,-0.67 0.695,-1.544 -0.116,-0.452 -0.2,-0.485 -0.689,-0.261 -0.428,0.194 -0.558,0.438 -0.558,1.029 0,0.661 0.082,0.774 0.552,0.774 z m 0.027,-20.186 c 0.447,0 0.577,-0.118 0.577,-0.522 -0.009,-0.74 -0.352,-1.192 -0.786,-1.028 -0.227,0.088 -0.374,0.415 -0.374,0.846 0,0.595 0.092,0.704 0.583,0.704 m -0.4,-2.448 c 0.07,0.07 0.328,0.127 0.57,0.127 0.556,0 0.483,-1.001 -0.081,-1.11 -0.368,-0.071 -0.759,0.712 -0.489,0.983 m 0.4,25.796 c 0.538,0.209 1.044,-0.085 1.044,-0.604 0,-0.524 -0.273,-0.591 -0.944,-0.23 -0.536,0.285 -0.582,0.652 -0.1,0.834 m 0.037,-27.426 c 0.212,0.083 0.488,0.049 0.61,-0.075 0.343,-0.34 0,-0.95 -0.525,-0.95 -0.583,0 -0.649,0.81 -0.085,1.025 m 0.3,28.904 c 0.465,0 1.084,-0.817 0.764,-1.005 -0.097,-0.054 -0.409,-0.011 -0.697,0.094 -0.643,0.247 -0.692,0.911 -0.067,0.911 m 0.143,-30.627 c 0.722,0 0.649,-0.501 -0.088,-0.613 -0.334,-0.052 -0.51,0.042 -0.51,0.267 0,0.218 0.221,0.346 0.598,0.346 m -0.149,31.555 c 0.122,0 0.283,-0.106 0.364,-0.233 0.079,-0.127 -0.021,-0.231 -0.218,-0.231 -0.2,0 -0.364,0.104 -0.364,0.231 0,0.127 0.1,0.233 0.218,0.233 m 0.261,-32.884 c 0.313,-0.082 0.401,-0.203 0.255,-0.352 -0.243,-0.239 -0.734,-0.052 -0.734,0.282 0,0.109 0.215,0.139 0.479,0.07"
       id="path5747"
       clip-path="url(#clipPath9294)" />
    <path
       d="m 287.56,856.9502 c 1.657,-1.168 1.496,-2.325 -0.401,-2.904 -0.858,-0.261 -1.079,-0.413 -0.998,-0.689 0.116,-0.397 -0.291,-1.247 -0.707,-1.475 -0.148,-0.081 -1.18,-0.464 -2.29,-0.852 -1.111,-0.389 -2.792,-1.007 -3.739,-1.374 -0.946,-0.368 -2.087,-0.693 -2.533,-0.723 -0.895,-0.054 -1.165,-0.352 -1.05,-1.143 0.113,-0.759 -0.298,-1.384 -0.82,-1.254 -0.452,0.116 -0.452,0.425 0,0.447 0.425,0.024 0.644,0.658 0.435,1.262 -0.174,0.5 -0.309,0.594 -1.15,0.801 -0.525,0.13 -2.136,0.291 -3.578,0.364 -3.347,0.163 -3.352,0.163 -1.601,0.403 0.812,0.11 2.199,0.094 3.085,-0.033 3.18,-0.462 4.463,-0.422 6.32,0.181 1.936,0.632 4.645,1.557 6.017,2.058 1.539,0.562 1.557,1.611 0.033,1.699 -0.421,0.025 -2.12,-0.315 -3.774,-0.755 -3.629,-0.965 -5.094,-1.141 -7.673,-0.92 -1.084,0.091 -2.504,0.113 -3.156,0.046 -0.656,-0.064 -1.207,-0.057 -1.232,0.018 -0.103,0.361 2.225,0.555 5.219,0.431 3.07,-0.127 3.511,-0.079 5.98,0.652 1.466,0.434 3.693,0.902 4.952,1.035 1.256,0.134 2.549,0.412 2.871,0.619 0.552,0.352 0.57,0.403 0.327,1.004 -0.158,0.394 -0.48,0.728 -0.855,0.889 -0.489,0.21 -0.714,0.151 -1.193,-0.288 -0.592,-0.552 -0.959,-0.634 -4.582,-1.031 -0.989,-0.11 -2.485,-0.325 -3.319,-0.48 -2.163,-0.397 -4.087,-0.291 -7.294,0.403 -0.992,0.213 -0.362,0.347 0.837,0.173 2.309,-0.33 4.585,-0.284 6.973,0.143 1.365,0.243 3.171,0.483 4.017,0.531 2.097,0.124 2.779,0.315 3.083,0.868 0.206,0.698 -0.391,0.989 -0.889,1.147 -0.492,0.154 -1.129,0.133 -1.772,0.051 -0.492,-0.064 -0.99,-0.294 -1.426,-0.318 -1.175,-0.043 -0.482,0.407 1.156,0.752 0.568,0.118 1.098,0.104 1.566,0.037 1.429,-0.207 2.272,-1.047 1.917,-1.42 0.219,0.048 0.989,-0.119 1.25,-0.355 z m -47.949,5.148 c 1.596,1.102 2.224,1.329 2.397,1.175 0.136,-0.121 0.956,-0.758 1.817,-1.414 1.679,-1.275 1.83,-1.323 5.001,-0.419 1.741,0.571 2.633,0.844 4.302,1.517 2.931,1.18 7.061,1.232 11.133,0.131 2.545,-0.543 5.367,-1.075 7.579,-1.353 1.906,-0.24 4.5,-0.632 5.768,-0.868 1.099,-0.1 4.794,-0.81 4.039,-2.258 -0.407,-0.74 -1.587,-0.938 -4.513,-0.758 -7.909,0.485 -7.694,0.464 -6.969,0.697 0.804,0.265 3.074,0.258 4.37,-0.006 0.922,-0.188 4.05,-0.266 5.327,-0.133 0.398,0.042 0.798,0.213 0.889,0.376 0.14,0.258 0.301,0.567 -0.871,1.075 -1.632,0.706 -5.488,1.225 -10.674,1.862 -1.732,0.213 -3.371,0.519 -5.798,1.089 -4.281,1.002 -8.496,0.538 -12.215,-1.347 -0.85,-0.431 -2.23,-0.907 -3.065,-1.061 -0.835,-0.152 -1.559,-0.355 -1.611,-0.449 -0.052,-0.094 0.391,-0.75 0.986,-1.46 1.411,-1.681 2.142,-2.931 2.937,-5.004 0.355,-0.931 0.716,-1.729 0.801,-1.778 0.085,-0.045 0.522,0.052 0.971,0.213 0.616,0.225 0.98,0.209 1.483,-0.07 1.008,-0.552 3.557,-1.326 5.462,-1.663 0.935,-0.164 2.509,-0.637 3.504,-1.052 1.66,-0.695 2.076,-0.765 5.229,-0.877 3.573,-0.125 4.979,-0.379 6.016,-1.084 0.534,-0.363 0.398,-0.363 -1.013,0 -0.922,0.237 -3.062,0.462 -4.928,0.519 -2.882,0.085 -3.547,0.189 -5.264,0.81 -1.083,0.392 -2.983,1.001 -4.22,1.357 -1.238,0.354 -2.944,0.883 -3.787,1.174 -1.211,0.415 -1.717,0.474 -2.391,0.279 -0.938,-0.273 -1.11,-0.485 -1.395,-1.696 -0.161,-0.683 -0.432,-1.035 -1.779,-2.312 -0.874,-0.831 -8.529,-2.372 -8.572,-2.349 2.534,3.369 4.482,12.277 -0.946,17.137"
       id="path5748"
       clip-path="url(#clipPath9293)" />
    <path
       stroke-width="0.218"
       stroke-linecap="butt"
       stroke-miterlimit="4"
       stroke-linejoin="miter"
       fill="none"
       stroke="#000000"
       d="m 287.56,856.9502 c 1.657,-1.168 1.496,-2.325 -0.401,-2.904 -0.858,-0.261 -1.079,-0.413 -0.998,-0.689 0.116,-0.397 -0.291,-1.247 -0.707,-1.475 -0.148,-0.081 -1.18,-0.464 -2.29,-0.852 -1.111,-0.389 -2.792,-1.007 -3.739,-1.374 -0.946,-0.368 -2.087,-0.693 -2.533,-0.723 -0.895,-0.054 -1.165,-0.352 -1.05,-1.143 0.113,-0.759 -0.298,-1.384 -0.82,-1.254 -0.452,0.116 -0.452,0.425 0,0.447 0.425,0.024 0.644,0.658 0.435,1.262 -0.174,0.5 -0.309,0.594 -1.15,0.801 -0.525,0.13 -2.136,0.291 -3.578,0.364 -3.347,0.163 -3.352,0.163 -1.601,0.403 0.812,0.11 2.199,0.094 3.085,-0.033 3.18,-0.462 4.463,-0.422 6.32,0.181 1.936,0.632 4.645,1.557 6.017,2.058 1.539,0.562 1.557,1.611 0.033,1.699 -0.421,0.025 -2.12,-0.315 -3.774,-0.755 -3.629,-0.965 -5.094,-1.141 -7.673,-0.92 -1.084,0.091 -2.504,0.113 -3.156,0.046 -0.656,-0.064 -1.207,-0.057 -1.232,0.018 -0.103,0.361 2.225,0.555 5.219,0.431 3.07,-0.127 3.511,-0.079 5.98,0.652 1.466,0.434 3.693,0.902 4.952,1.035 1.256,0.134 2.549,0.412 2.871,0.619 0.552,0.352 0.57,0.403 0.327,1.004 -0.158,0.394 -0.48,0.728 -0.855,0.889 -0.489,0.21 -0.714,0.151 -1.193,-0.288 -0.592,-0.552 -0.959,-0.634 -4.582,-1.031 -0.989,-0.11 -2.485,-0.325 -3.319,-0.48 -2.163,-0.397 -4.087,-0.291 -7.294,0.403 -0.992,0.213 -0.362,0.347 0.837,0.173 2.309,-0.33 4.585,-0.284 6.973,0.143 1.365,0.243 3.171,0.483 4.017,0.531 2.097,0.124 2.779,0.315 3.083,0.868 0.206,0.698 -0.391,0.989 -0.889,1.147 -0.492,0.154 -1.129,0.133 -1.772,0.051 -0.492,-0.064 -0.99,-0.294 -1.426,-0.318 -1.175,-0.043 -0.482,0.407 1.156,0.752 0.568,0.118 1.098,0.104 1.566,0.037 1.429,-0.207 2.272,-1.047 1.917,-1.42 0.219,0.048 0.989,-0.119 1.25,-0.355 z m -47.949,5.148 c 1.596,1.102 2.224,1.329 2.397,1.175 0.136,-0.121 0.956,-0.758 1.817,-1.414 1.679,-1.275 1.83,-1.323 5.001,-0.419 1.741,0.571 2.633,0.844 4.302,1.517 2.931,1.18 7.061,1.232 11.133,0.131 2.545,-0.543 5.367,-1.075 7.579,-1.353 1.906,-0.24 4.5,-0.632 5.768,-0.868 1.099,-0.1 4.794,-0.81 4.039,-2.258 -0.407,-0.74 -1.587,-0.938 -4.513,-0.758 -7.909,0.485 -7.694,0.464 -6.969,0.697 0.804,0.265 3.074,0.258 4.37,-0.006 0.922,-0.188 4.05,-0.266 5.327,-0.133 0.398,0.042 0.798,0.213 0.889,0.376 0.14,0.258 0.301,0.567 -0.871,1.075 -1.632,0.706 -5.488,1.225 -10.674,1.862 -1.732,0.213 -3.371,0.519 -5.798,1.089 -4.281,1.002 -8.496,0.538 -12.215,-1.347 -0.85,-0.431 -2.23,-0.907 -3.065,-1.061 -0.835,-0.152 -1.559,-0.355 -1.611,-0.449 -0.052,-0.094 0.391,-0.75 0.986,-1.46 1.411,-1.681 2.142,-2.931 2.937,-5.004 0.355,-0.931 0.716,-1.729 0.801,-1.778 0.085,-0.045 0.522,0.052 0.971,0.213 0.616,0.225 0.98,0.209 1.483,-0.07 1.008,-0.552 3.557,-1.326 5.462,-1.663 0.935,-0.164 2.509,-0.637 3.504,-1.052 1.66,-0.695 2.076,-0.765 5.229,-0.877 3.573,-0.125 4.979,-0.379 6.016,-1.084 0.534,-0.363 0.398,-0.363 -1.013,0 -0.922,0.237 -3.062,0.462 -4.928,0.519 -2.882,0.085 -3.547,0.189 -5.264,0.81 -1.083,0.392 -2.983,1.001 -4.22,1.357 -1.238,0.354 -2.944,0.883 -3.787,1.174 -1.211,0.415 -1.717,0.474 -2.391,0.279 -0.938,-0.273 -1.11,-0.485 -1.395,-1.696 -0.161,-0.683 -0.432,-1.035 -1.779,-2.312 -0.874,-0.831 -8.529,-2.372 -8.572,-2.349 2.534,3.369 4.482,12.277 -0.946,17.137 z"
       id="path5749"
       clip-path="url(#clipPath9292)" />
    <path
       d="m 80.1805,843.70999 c 0.033,-0.155 0.097,-0.218 0.288,-0.31 0.139,-0.045 0.349,-0.233 0.479,-0.379 0.443,-0.486 0.674,-0.422 0.322,0.088 l -0.237,0.349 0.283,0.337 c 0.221,0.264 0.269,0.361 0.206,0.449 -0.088,0.127 -0.176,0.027 -0.44,-0.413 -0.119,-0.21 -0.179,-0.258 -0.249,-0.227 -0.055,0.015 -0.109,0.054 -0.118,0.076 -0.015,0.014 -0.149,0.072 -0.301,0.13 l -0.276,0.103 z m -1.202,-1.62 c -0.094,-0.231 -0.009,-0.622 0.176,-0.896 0.334,-0.488 0.947,-0.655 1.517,-0.412 l 0.358,0.152 -0.306,-1.114 c -0.455,-1.63 -0.607,-2.327 -0.598,-2.843 0.009,-0.252 0.019,-0.476 0.033,-0.501 0.016,-0.018 0.116,0.347 0.213,0.819 0.1,0.47 0.231,0.999 0.285,1.172 0.037,0.179 0.207,0.694 0.34,1.153 0.64,2.212 0.689,2.491 0.54,2.776 -0.094,0.179 -0.249,0.088 -0.261,-0.164 -0.012,-0.161 -0.024,-0.158 -0.258,-0.002 -0.397,0.263 -0.749,0.36 -1.198,0.323 -0.474,-0.039 -0.74,-0.185 -0.844,-0.46 z m 1.092,0.133 c 0.374,-0.027 1.02,-0.224 1.093,-0.327 0.073,-0.11 -0.198,-0.535 -0.464,-0.714 -0.462,-0.315 -0.95,-0.227 -1.262,0.228 -0.083,0.121 -0.153,0.315 -0.149,0.425 0,0.167 0.03,0.221 0.227,0.309 0.128,0.061 0.377,0.097 0.555,0.082 z m 3.754,3.113 c 0.051,-0.142 0.121,-0.206 0.267,-0.24 0.586,-0.136 0.958,-0.692 0.885,-1.308 l -0.027,-0.202 -0.318,0.045 c -0.176,0.021 -0.489,0.109 -0.704,0.182 -0.349,0.139 -0.401,0.139 -0.616,-0.015 -0.558,-0.389 -0.267,-1.202 0.5,-1.399 0.341,-0.094 0.459,-0.042 0.595,0.23 l 0.094,0.174 -0.212,-0.086 c -0.431,-0.172 -1.004,0.246 -0.904,0.665 0.024,0.176 0.042,0.179 0.683,0.051 0.349,-0.072 0.682,-0.097 0.737,-0.06 0.048,0.039 0.097,0.027 0.1,-0.009 0.015,-0.046 0.061,-0.112 0.134,-0.143 0.075,-0.027 0.112,-0.015 0.084,0.01 -0.021,0.039 -0.015,0.081 0.037,0.105 0.145,0.034 0.176,0.802 0.04,1.159 l -0.11,0.291 0.307,0.261 c 0.5,0.432 0.57,0.519 0.61,0.772 l 0.03,0.242 -0.349,-0.304 c -0.192,-0.163 -0.425,-0.406 -0.522,-0.533 -0.097,-0.128 -0.179,-0.237 -0.189,-0.24 -0.008,-0.006 -0.108,0.073 -0.233,0.17 -0.124,0.1 -0.4,0.224 -0.619,0.282 l -0.397,0.1 z m 5.762,-9.785 c -0.01,0.103 0.146,0.398 0.285,0.659 l 0.261,0.47 1.016,0.436 c 1.244,0.532 1.702,0.829 1.9,1.235 0.16,0.322 0.185,0.971 0.051,1.363 -0.127,0.37 -0.601,1.031 -1.277,1.566 l -0.592,0.345 c -0.352,0.146 -0.358,0.155 -0.158,0.301 0.213,0.154 0.647,0.853 0.68,1.095 0.027,0.173 0.009,0.182 -0.422,0.279 l -0.449,0.097 0.398,-0.058 c 0.218,-0.03 0.412,-0.021 0.433,0.025 0.043,0.031 0.019,0.23 -0.008,0.413 -0.067,0.519 -0.559,1.207 -1.068,1.495 -0.574,0.325 -1.314,0.361 -1.727,0.076 -0.154,-0.103 -0.185,-0.091 -0.455,0.173 -0.331,0.322 -0.673,0.497 -1.195,0.613 -0.44,0.1 -0.701,0.073 -0.932,-0.088 -0.097,-0.066 -0.137,-0.109 -0.085,-0.1 v -0.003 c 0.046,0.012 0.1,-0.012 0.109,-0.082 0.018,-0.067 0.064,-0.085 0.118,-0.034 0.161,0.113 1.032,-0.06 1.418,-0.278 0.427,-0.244 0.618,-0.537 0.728,-1.132 0.057,-0.304 0.049,-0.343 -0.107,-0.355 -0.087,-0.006 -0.363,0.051 -0.613,0.137 -0.248,0.094 -0.503,0.124 -0.557,0.087 -0.122,-0.084 -0.45,-0.797 -0.532,-1.159 -0.082,-0.331 0.091,-0.582 0.446,-0.682 l 0.264,-0.088 -0.245,-0.489 c -0.598,-1.19 -1.572,-2.934 -1.851,-3.31 -0.422,-0.562 -0.528,-0.78 -0.576,-1.169 -0.049,-0.412 0.014,-0.536 0.132,-0.254 0.189,0.455 0.317,0.682 0.659,1.144 0.392,0.53 1.563,2.627 1.836,3.285 0.091,0.231 0.191,0.529 0.212,0.666 0.028,0.194 0.131,0.305 0.407,0.533 0.404,0.328 0.759,0.85 0.713,1.044 -0.018,0.073 0,0.236 0.036,0.367 0.024,0.136 0.049,0.361 0.021,0.513 -0.03,0.191 0,0.297 0.092,0.355 0.179,0.121 0.704,0.203 0.937,0.145 0.109,-0.014 0.209,-0.018 0.225,0.019 0.033,0.027 0.054,0.03 0.051,0.012 0.016,-0.028 0.14,-0.128 0.282,-0.222 0.371,-0.234 0.616,-0.528 0.816,-0.974 0.091,-0.215 0.167,-0.409 0.164,-0.431 0,-0.018 -0.097,-0.042 -0.209,-0.042 -0.219,-0.009 -0.722,-0.38 -0.868,-0.649 -0.145,-0.264 -0.185,-0.665 -0.106,-0.908 0.045,-0.139 0.076,-0.309 0.073,-0.385 -0.018,-0.246 -0.397,-0.929 -0.798,-1.438 -0.212,-0.27 -0.54,-0.804 -0.725,-1.186 -0.398,-0.817 -0.574,-1.068 -1.062,-1.53 -0.2,-0.181 -0.431,-0.431 -0.522,-0.54 -0.094,-0.109 -0.47,-0.449 -0.843,-0.752 -0.377,-0.301 -0.716,-0.619 -0.759,-0.704 -0.067,-0.134 0.018,-0.1 0.592,0.228 0.53,0.309 0.743,0.466 1.046,0.785 0.21,0.219 0.565,0.58 0.789,0.802 0.449,0.439 0.686,0.794 1.059,1.583 0.134,0.285 0.422,0.747 0.643,1.029 0.219,0.279 0.519,0.761 0.671,1.074 0.152,0.309 0.279,0.561 0.292,0.555 0.014,-0.006 0.135,-0.03 0.266,-0.109 0.325,-0.128 0.832,-0.492 1.232,-0.89 0.604,-0.597 0.792,-1.389 0.495,-2.077 -0.164,-0.389 -0.274,-0.508 -0.358,-0.386 -0.07,0.106 -1.108,0.755 -1.333,0.835 -0.306,0.118 -0.591,-0.01 -0.961,-0.413 -0.537,-0.586 -0.607,-0.992 -0.249,-1.445 l 0.182,-0.227 -0.215,-0.209 c -0.258,-0.249 -0.355,-0.416 -0.495,-0.874 -0.121,-0.385 -0.346,-0.802 -0.495,-0.901 -0.048,-0.04 -0.306,-0.307 -0.56,-0.601 -0.258,-0.292 -0.644,-0.692 -0.863,-0.892 -0.439,-0.401 -0.855,-0.88 -1.013,-1.174 -0.1,-0.168 -0.106,-0.185 -0.167,-0.104 -0.173,0.255 -0.23,-0.303 -0.109,-1.044 0.049,-0.309 0.109,-0.582 0.124,-0.606 0.019,-0.021 0.076,-0.258 0.134,-0.522 0.124,-0.564 0.595,-2.084 0.81,-2.609 0.085,-0.204 0.361,-0.707 0.619,-1.12 0.443,-0.71 0.479,-0.752 0.667,-0.777 0.201,-0.024 0.201,-0.024 0.043,0.182 -0.07,0.109 -0.215,0.352 -0.534,0.968 -0.458,0.592 -0.901,1.851 -1.335,3.589 -0.315,1.269 -0.315,1.272 0.009,1.827 0.282,0.474 0.838,1.117 1.198,1.381 0.1,0.07 0.28,0.245 0.395,0.385 0.264,0.315 0.34,0.382 0.698,0.731 0.492,0.705 0.646,1.029 0.661,1.129 z m -1.794,8.304 c 0.146,-0.045 0.35,-0.124 0.471,-0.115 0.264,0.01 0.248,-0.054 -0.161,-0.595 -0.161,-0.212 -0.31,-0.433 -0.328,-0.495 -0.033,-0.194 -0.385,-0.09 -0.561,0.162 -0.142,0.209 -0.139,0.245 0.036,0.567 0.097,0.188 0.186,0.379 0.183,0.428 0,0.152 0.109,0.161 0.363,0.042 z m 3.432,-0.646 c 0.185,-0.094 0.194,-0.112 0.137,-0.306 -0.031,-0.21 -0.634,-0.971 -0.717,-0.956 -0.081,0 -0.145,0.498 -0.087,0.665 0.09,0.251 0.321,0.646 0.404,0.673 0.035,0.009 0.157,-0.019 0.261,-0.091 z m 0.185,-4.928 c 0.331,-0.194 0.601,-0.366 0.595,-0.39 0,-0.019 -0.233,-0.137 -0.51,-0.253 -0.279,-0.115 -0.7,-0.345 -0.944,-0.51 l -0.436,-0.3 -0.094,0.213 c -0.216,0.492 0.036,1.141 0.573,1.459 0.207,0.122 0.237,0.112 0.816,-0.221 z m -6.429,4.74 c 0.018,-0.067 -0.112,-0.191 -0.249,-0.301 -0.046,-0.02 -0.037,-0.108 -0.027,-0.157 0.018,-0.055 -0.03,-0.152 -0.134,-0.206 -0.191,-0.127 -0.631,-0.841 -0.992,-1.603 -0.404,-0.852 -0.689,-1.932 -0.519,-1.962 0.015,-0.004 0.115,0.227 0.228,0.512 0.294,0.761 0.847,1.875 1.186,2.4 0.431,0.668 0.674,1.18 0.616,1.299 -0.057,0.118 -0.073,0.118 -0.094,0.006 z m 4.803,-19.844 c -0.249,0.583 -0.506,1.102 -0.78,1.575 -0.279,0.483 -0.318,0.525 -0.5,0.55 -0.11,0.008 -0.194,0.014 -0.189,0.002 h -0.008 c 0.042,-0.091 0.251,-0.473 0.494,-0.895 0.261,-0.458 0.512,-0.98 0.758,-1.58 z m -11.384,-17.034 c -0.273,-1.195 -0.261,-2.56 0.054,-3.62 0.17,-0.579 0.734,-1.526 1.117,-1.871 0.161,-0.146 0.647,-0.54 1.083,-0.877 0.437,-0.34 0.934,-0.758 1.108,-0.935 0.172,-0.175 0.327,-0.291 0.342,-0.251 0.034,0.111 -0.473,0.822 -0.788,1.08 -0.159,0.127 -0.598,0.482 -0.977,0.788 -0.556,0.443 -0.756,0.647 -1.011,1.023 -0.68,1.002 -0.874,2.07 -0.734,3.993 0.124,1.654 0.075,1.814 -0.191,0.67 z"
       id="path5750"
       clip-path="url(#clipPath9291)" />
    <path
       stroke-width="0.352"
       stroke-linecap="butt"
       stroke-miterlimit="4"
       stroke-linejoin="miter"
       fill="none"
       stroke="#000000"
       d="m 80.1805,843.70999 c 0.033,-0.155 0.097,-0.218 0.288,-0.31 0.139,-0.045 0.349,-0.233 0.479,-0.379 0.443,-0.486 0.674,-0.422 0.322,0.088 l -0.237,0.349 0.283,0.337 c 0.221,0.264 0.269,0.361 0.206,0.449 -0.088,0.127 -0.176,0.027 -0.44,-0.413 -0.119,-0.21 -0.179,-0.258 -0.249,-0.227 -0.055,0.015 -0.109,0.054 -0.118,0.076 -0.015,0.014 -0.149,0.072 -0.301,0.13 l -0.276,0.103 z m -1.202,-1.62 c -0.094,-0.231 -0.009,-0.622 0.176,-0.896 0.334,-0.488 0.947,-0.655 1.517,-0.412 l 0.358,0.152 -0.306,-1.114 c -0.455,-1.63 -0.607,-2.327 -0.598,-2.843 0.009,-0.252 0.019,-0.476 0.033,-0.501 0.016,-0.018 0.116,0.347 0.213,0.819 0.1,0.47 0.231,0.999 0.285,1.172 0.037,0.179 0.207,0.694 0.34,1.153 0.64,2.212 0.689,2.491 0.54,2.776 -0.094,0.179 -0.249,0.088 -0.261,-0.164 -0.012,-0.161 -0.024,-0.158 -0.258,-0.002 -0.397,0.263 -0.749,0.36 -1.198,0.323 -0.474,-0.039 -0.74,-0.185 -0.844,-0.46 z m 1.092,0.133 c 0.374,-0.027 1.02,-0.224 1.093,-0.327 0.073,-0.11 -0.198,-0.535 -0.464,-0.714 -0.462,-0.315 -0.95,-0.227 -1.262,0.228 -0.083,0.121 -0.153,0.315 -0.149,0.425 0,0.167 0.03,0.221 0.227,0.309 0.128,0.061 0.377,0.097 0.555,0.082 z m 3.754,3.113 c 0.051,-0.142 0.121,-0.206 0.267,-0.24 0.586,-0.136 0.958,-0.692 0.885,-1.308 l -0.027,-0.202 -0.318,0.045 c -0.176,0.021 -0.489,0.109 -0.704,0.182 -0.349,0.139 -0.401,0.139 -0.616,-0.015 -0.558,-0.389 -0.267,-1.202 0.5,-1.399 0.341,-0.094 0.459,-0.042 0.595,0.23 l 0.094,0.174 -0.212,-0.086 c -0.431,-0.172 -1.004,0.246 -0.904,0.665 0.024,0.176 0.042,0.179 0.683,0.051 0.349,-0.072 0.682,-0.097 0.737,-0.06 0.048,0.039 0.097,0.027 0.1,-0.009 0.015,-0.046 0.061,-0.112 0.134,-0.143 0.075,-0.027 0.112,-0.015 0.084,0.01 -0.021,0.039 -0.015,0.081 0.037,0.105 0.145,0.034 0.176,0.802 0.04,1.159 l -0.11,0.291 0.307,0.261 c 0.5,0.432 0.57,0.519 0.61,0.772 l 0.03,0.242 -0.349,-0.304 c -0.192,-0.163 -0.425,-0.406 -0.522,-0.533 -0.097,-0.128 -0.179,-0.237 -0.189,-0.24 -0.008,-0.006 -0.108,0.073 -0.233,0.17 -0.124,0.1 -0.4,0.224 -0.619,0.282 l -0.397,0.1 z m 5.762,-9.785 c -0.01,0.103 0.146,0.398 0.285,0.659 l 0.261,0.47 1.016,0.436 c 1.244,0.532 1.702,0.829 1.9,1.235 0.16,0.322 0.185,0.971 0.051,1.363 -0.127,0.37 -0.601,1.031 -1.277,1.566 l -0.592,0.345 c -0.352,0.146 -0.358,0.155 -0.158,0.301 0.213,0.154 0.647,0.853 0.68,1.095 0.027,0.173 0.009,0.182 -0.422,0.279 l -0.449,0.097 0.398,-0.058 c 0.218,-0.03 0.412,-0.021 0.433,0.025 0.043,0.031 0.019,0.23 -0.008,0.413 -0.067,0.519 -0.559,1.207 -1.068,1.495 -0.574,0.325 -1.314,0.361 -1.727,0.076 -0.154,-0.103 -0.185,-0.091 -0.455,0.173 -0.331,0.322 -0.673,0.497 -1.195,0.613 -0.44,0.1 -0.701,0.073 -0.932,-0.088 -0.097,-0.066 -0.137,-0.109 -0.085,-0.1 v -0.003 c 0.046,0.012 0.1,-0.012 0.109,-0.082 0.018,-0.067 0.064,-0.085 0.118,-0.034 0.161,0.113 1.032,-0.06 1.418,-0.278 0.427,-0.244 0.618,-0.537 0.728,-1.132 0.057,-0.304 0.049,-0.343 -0.107,-0.355 -0.087,-0.006 -0.363,0.051 -0.613,0.137 -0.248,0.094 -0.503,0.124 -0.557,0.087 -0.122,-0.084 -0.45,-0.797 -0.532,-1.159 -0.082,-0.331 0.091,-0.582 0.446,-0.682 l 0.264,-0.088 -0.245,-0.489 c -0.598,-1.19 -1.572,-2.934 -1.851,-3.31 -0.422,-0.562 -0.528,-0.78 -0.576,-1.169 -0.049,-0.412 0.014,-0.536 0.132,-0.254 0.189,0.455 0.317,0.682 0.659,1.144 0.392,0.53 1.563,2.627 1.836,3.285 0.091,0.231 0.191,0.529 0.212,0.666 0.028,0.194 0.131,0.305 0.407,0.533 0.404,0.328 0.759,0.85 0.713,1.044 -0.018,0.073 0,0.236 0.036,0.367 0.024,0.136 0.049,0.361 0.021,0.513 -0.03,0.191 0,0.297 0.092,0.355 0.179,0.121 0.704,0.203 0.937,0.145 0.109,-0.014 0.209,-0.018 0.225,0.019 0.033,0.027 0.054,0.03 0.051,0.012 0.016,-0.028 0.14,-0.128 0.282,-0.222 0.371,-0.234 0.616,-0.528 0.816,-0.974 0.091,-0.215 0.167,-0.409 0.164,-0.431 0,-0.018 -0.097,-0.042 -0.209,-0.042 -0.219,-0.009 -0.722,-0.38 -0.868,-0.649 -0.145,-0.264 -0.185,-0.665 -0.106,-0.908 0.045,-0.139 0.076,-0.309 0.073,-0.385 -0.018,-0.246 -0.397,-0.929 -0.798,-1.438 -0.212,-0.27 -0.54,-0.804 -0.725,-1.186 -0.398,-0.817 -0.574,-1.068 -1.062,-1.53 -0.2,-0.181 -0.431,-0.431 -0.522,-0.54 -0.094,-0.109 -0.47,-0.449 -0.843,-0.752 -0.377,-0.301 -0.716,-0.619 -0.759,-0.704 -0.067,-0.134 0.018,-0.1 0.592,0.228 0.53,0.309 0.743,0.466 1.046,0.785 0.21,0.219 0.565,0.58 0.789,0.802 0.449,0.439 0.686,0.794 1.059,1.583 0.134,0.285 0.422,0.747 0.643,1.029 0.219,0.279 0.519,0.761 0.671,1.074 0.152,0.309 0.279,0.561 0.292,0.555 0.014,-0.006 0.135,-0.03 0.266,-0.109 0.325,-0.128 0.832,-0.492 1.232,-0.89 0.604,-0.597 0.792,-1.389 0.495,-2.077 -0.164,-0.389 -0.274,-0.508 -0.358,-0.386 -0.07,0.106 -1.108,0.755 -1.333,0.835 -0.306,0.118 -0.591,-0.01 -0.961,-0.413 -0.537,-0.586 -0.607,-0.992 -0.249,-1.445 l 0.182,-0.227 -0.215,-0.209 c -0.258,-0.249 -0.355,-0.416 -0.495,-0.874 -0.121,-0.385 -0.346,-0.802 -0.495,-0.901 -0.048,-0.04 -0.306,-0.307 -0.56,-0.601 -0.258,-0.292 -0.644,-0.692 -0.863,-0.892 -0.439,-0.401 -0.855,-0.88 -1.013,-1.174 -0.1,-0.168 -0.106,-0.185 -0.167,-0.104 -0.173,0.255 -0.23,-0.303 -0.109,-1.044 0.049,-0.309 0.109,-0.582 0.124,-0.606 0.019,-0.021 0.076,-0.258 0.134,-0.522 0.124,-0.564 0.595,-2.084 0.81,-2.609 0.085,-0.204 0.361,-0.707 0.619,-1.12 0.443,-0.71 0.479,-0.752 0.667,-0.777 0.201,-0.024 0.201,-0.024 0.043,0.182 -0.07,0.109 -0.215,0.352 -0.534,0.968 -0.458,0.592 -0.901,1.851 -1.335,3.589 -0.315,1.269 -0.315,1.272 0.009,1.827 0.282,0.474 0.838,1.117 1.198,1.381 0.1,0.07 0.28,0.245 0.395,0.385 0.264,0.315 0.34,0.382 0.698,0.731 0.492,0.705 0.646,1.029 0.661,1.129 z m -1.794,8.304 c 0.146,-0.045 0.35,-0.124 0.471,-0.115 0.264,0.01 0.248,-0.054 -0.161,-0.595 -0.161,-0.212 -0.31,-0.433 -0.328,-0.495 -0.033,-0.194 -0.385,-0.09 -0.561,0.162 -0.142,0.209 -0.139,0.245 0.036,0.567 0.097,0.188 0.186,0.379 0.183,0.428 0,0.152 0.109,0.161 0.363,0.042 z m 3.432,-0.646 c 0.185,-0.094 0.194,-0.112 0.137,-0.306 -0.031,-0.21 -0.634,-0.971 -0.717,-0.956 -0.081,0 -0.145,0.498 -0.087,0.665 0.09,0.251 0.321,0.646 0.404,0.673 0.035,0.009 0.157,-0.019 0.261,-0.091 z m 0.185,-4.928 c 0.331,-0.194 0.601,-0.366 0.595,-0.39 0,-0.019 -0.233,-0.137 -0.51,-0.253 -0.279,-0.115 -0.7,-0.345 -0.944,-0.51 l -0.436,-0.3 -0.094,0.213 c -0.216,0.492 0.036,1.141 0.573,1.459 0.207,0.122 0.237,0.112 0.816,-0.221 z m -6.429,4.74 c 0.018,-0.067 -0.112,-0.191 -0.249,-0.301 -0.046,-0.02 -0.037,-0.108 -0.027,-0.157 0.018,-0.055 -0.03,-0.152 -0.134,-0.206 -0.191,-0.127 -0.631,-0.841 -0.992,-1.603 -0.404,-0.852 -0.689,-1.932 -0.519,-1.962 0.015,-0.004 0.115,0.227 0.228,0.512 0.294,0.761 0.847,1.875 1.186,2.4 0.431,0.668 0.674,1.18 0.616,1.299 -0.057,0.118 -0.073,0.118 -0.094,0.006 z m 4.803,-19.844 c -0.249,0.583 -0.506,1.102 -0.78,1.575 -0.279,0.483 -0.318,0.525 -0.5,0.55 -0.11,0.008 -0.194,0.014 -0.189,0.002 h -0.008 c 0.042,-0.091 0.251,-0.473 0.494,-0.895 0.261,-0.458 0.512,-0.98 0.758,-1.58 z m -11.384,-17.034 c -0.273,-1.195 -0.261,-2.56 0.054,-3.62 0.17,-0.579 0.734,-1.526 1.117,-1.871 0.161,-0.146 0.647,-0.54 1.083,-0.877 0.437,-0.34 0.934,-0.758 1.108,-0.935 0.172,-0.175 0.327,-0.291 0.342,-0.251 0.034,0.111 -0.473,0.822 -0.788,1.08 -0.159,0.127 -0.598,0.482 -0.977,0.788 -0.556,0.443 -0.756,0.647 -1.011,1.023 -0.68,1.002 -0.874,2.07 -0.734,3.993 0.124,1.654 0.075,1.814 -0.191,0.67 z"
       id="path5751"
       clip-path="url(#clipPath9290)" />
    <path
       stroke-width="0.731"
       stroke-linecap="butt"
       stroke-miterlimit="4"
       stroke-linejoin="miter"
       fill="none"
       stroke="#000000"
       d="m 103.628,792.14016 c -3.701,-0.204 -9.961,-1.781 -13.915,-2.3 -6.153,-0.81 -9.746,3.511 -1.695,4.821 l 10.965,1.788 c 3.343,0.533 1.987,3.037 -0.237,3.407 -2.276,0.376 -5.028,-0.234 -7.349,-0.061 -2.84,-1.805 -5.577,-4.105 -8.528,-5.003 -3.978,-1.211 -12.79,-3.101 -11.861,8.911 0.206,2.67 0.27,4.3 0.722,6.002 1.035,3.92 1.162,4.545 1.699,8.395 0.361,2.576 0.316,4.898 -0.316,9.837 -0.473,3.717 -0.461,4.675 -0.118,5.893 0.546,1.938 1.441,3.61 2.509,4.681 0.516,0.516 0.54,0.535 0.525,0.368 -0.021,-0.113 0,-0.11 0.125,0.036 0.345,0.416 0.652,1.071 1.022,2.181 0.125,0.352 0.286,0.756 0.376,0.893 0.446,0.703 1.433,1.474 1.987,1.556 0.307,0.045 0.325,0.058 0.331,0.203 0.013,0.131 -0.027,0.155 -0.197,0.164 -0.419,0.019 -1.15,-0.379 -1.748,-0.952 v -0.004 c -0.585,-0.567 -0.84,-1.046 -1.262,-2.387 -0.273,-0.847 -0.294,-0.883 -0.734,-1.248 -1.216,-0.998 -2.045,-2.16 -2.703,-3.798 -0.574,-1.424 -0.862,-2.628 -0.844,-3.514 0.009,-0.279 0.012,-0.607 0.012,-0.734 -0.008,-0.124 0.073,-0.847 0.347,-2.962 0.767,-5.929 0.77,-7.288 0.172,-11.657 -0.239,-1.766 -0.527,-3.225 -0.928,-4.736 -0.546,-2.063 -0.519,-1.939 -0.744,-2.962 -0.348,-1.59 -0.343,-2.891 -0.531,-5.449 -0.895,-12.234 7.907,-10.344 11.885,-9.133 2.956,0.898 5.689,3.198 8.53,5.003 2.321,-0.172 5.076,0.438 7.348,0.061 2.227,-0.37 3.581,-2.873 0.237,-3.407 l -10.966,-1.787 c -8.046,-1.311 -4.448,-5.678 1.697,-4.822 4.538,0.631 10.267,2.127 13.917,2.3"
       id="path5752"
       clip-path="url(#clipPath9289)" />
  </g>
</svg>
