<?xml version="1.0" encoding="utf-8"?>
<svg viewBox="15.5827 123.4188 468.8347 288.9881" xmlns="http://www.w3.org/2000/svg">
  <g transform="matrix(1, 0, 0, 0.9999999999999999, 71.09101887243185, -201.5212407890508)">
    <path d="M 411.555 359.423 L -53.738 359.423 C -55.128 359.394 -55.965 357.87 -55.244 356.68 C -54.924 356.152 -54.356 355.823 -53.738 355.81 L 411.555 355.81 C 412.946 355.84 413.783 357.364 413.062 358.553 C 412.742 359.082 412.173 359.41 411.555 359.423 Z" fill="#cacaca"/>
    <ellipse cx="-22.813" cy="335.763" rx="10.588" ry="10.823" fill="#3f3d56"/>
    <ellipse cx="13.762" cy="335.763" rx="10.588" ry="10.823" fill="#3f3d56"/>
    <ellipse cx="50.337" cy="335.763" rx="10.588" ry="10.823" fill="#3f3d56"/>
    <path d="M 389.534 327.622 L 363.553 327.622 C 362.039 327.652 361.125 329.31 361.908 330.607 C 362.257 331.184 362.878 331.543 363.553 331.556 L 389.534 331.556 C 391.049 331.526 391.962 329.868 391.179 328.572 C 390.83 327.994 390.209 327.635 389.534 327.622 Z" fill="#3f3d56"/>
    <path d="M 389.534 335.006 L 363.553 335.006 C 362.039 335.036 361.125 336.695 361.908 337.991 C 362.257 338.569 362.878 338.927 363.553 338.941 L 389.534 338.941 C 391.049 338.911 391.962 337.252 391.179 335.956 C 390.83 335.378 390.209 335.02 389.534 335.006 Z" fill="#3f3d56"/>
    <path d="M 389.534 342.381 L 363.553 342.381 C 362.039 342.411 361.125 344.069 361.908 345.366 C 362.257 345.943 362.878 346.302 363.553 346.315 L 389.534 346.315 C 391.049 346.285 391.962 344.627 391.179 343.331 C 390.83 342.753 390.209 342.394 389.534 342.381 Z" fill="#3f3d56"/>
  </g>
  <g transform="matrix(0.6454320549964905, 0, 0, 0.6538161039352417, 92.02500940856714, -96.72042873301427)" style="">
    <path d="M 74.217 687.125 L 74.855 457.205 C 74.893 447.515 82.767 439.685 92.456 439.701 L 266.097 440.182 C 275.786 440.22 283.616 448.094 283.6 457.784 L 282.963 687.704 C 282.925 697.393 275.051 705.223 265.362 705.208 L 91.721 704.726 C 82.032 704.688 74.202 696.814 74.217 687.125 Z" fill="#e6e6e6"/>
    <path d="M 87.729 617.716 L 88.139 469.903 C 88.174 460.828 95.549 453.495 104.623 453.51 L 253.853 453.924 C 262.927 453.959 270.261 461.333 270.246 470.408 L 269.679 675.006 C 269.643 684.08 262.269 691.414 253.194 691.398 L 160.75 691.142 C 120.329 690.985 87.663 658.138 87.729 617.716 Z" fill="#fff"/>
    <path d="M 237.089 568.899 L 120.729 568.899 C 115.354 568.899 111.995 563.081 114.682 558.427 C 115.929 556.267 118.234 554.936 120.729 554.936 L 237.089 554.936 C 242.464 554.936 245.823 560.754 243.136 565.408 C 241.888 567.569 239.584 568.899 237.089 568.899 Z" fill="#2e8555"/>
    <path d="M 146.328 530.611 L 120.729 530.611 C 115.354 530.611 111.995 524.793 114.682 520.139 C 115.929 517.979 118.234 516.648 120.729 516.648 L 146.328 516.648 C 151.702 516.648 155.061 522.466 152.374 527.12 C 151.127 529.281 148.822 530.611 146.328 530.611 Z" fill="#2e8555"/>
    <path d="M 237.089 630.286 L 120.729 630.286 C 115.354 630.286 111.995 624.468 114.682 619.813 C 115.929 617.653 118.234 616.322 120.729 616.322 L 237.089 616.322 C 242.464 616.322 245.823 622.14 243.136 626.795 C 241.888 628.955 239.584 630.286 237.089 630.286 Z" fill="#2e8555"/>
    <path d="M 237.089 599.592 L 120.729 599.592 C 115.354 599.592 111.995 593.774 114.682 589.12 C 115.929 586.96 118.234 585.629 120.729 585.629 L 237.089 585.629 C 242.464 585.629 245.823 591.447 243.136 596.102 C 241.888 598.262 239.584 599.592 237.089 599.592 Z" fill="#2e8555"/>
    <circle cx="-76.836" cy="750.921" r="27.78" fill="#2e8555"/>
    <path d="M -80.626 765.379 C -81.599 765.379 -82.515 764.921 -83.098 764.143 L -90.677 754.038 C -92.106 752.136 -90.941 749.401 -88.58 749.113 C -87.481 748.98 -86.395 749.444 -85.732 750.33 L -80.774 756.94 L -68.039 737.838 C -66.718 735.86 -63.751 736.054 -62.698 738.188 C -62.211 739.176 -62.286 740.349 -62.897 741.267 L -78.055 764.003 C -78.611 764.837 -79.538 765.35 -80.54 765.378 C -80.569 765.379 -80.597 765.379 -80.626 765.379 Z" fill="#fff"/>
    <rect x="26.028" y="365.11" width="2" height="6" fill="#2f2e41" transform="matrix(1, 0, 0, 1, -104.616028, 324.939088)"/>
    <path d="M -76.589 678.594 L -78.589 678.594 L -78.589 667.137 L -76.589 667.137 L -76.589 678.594 Z M -76.589 655.68 L -78.589 655.68 L -78.589 644.224 L -76.589 644.224 L -76.589 655.68 Z M -76.589 632.768 L -78.589 632.768 L -78.589 621.311 L -76.589 621.311 L -76.589 632.768 Z M -76.589 609.855 L -78.589 609.855 L -78.589 598.399 L -76.589 598.399 L -76.589 609.855 Z M -76.589 586.942 L -78.589 586.942 L -78.589 575.486 L -76.589 575.486 L -76.589 586.942 Z" fill="#2f2e41"/>
    <polygon points="-76.588 564.03 -78.588 564.03 -78.588 557.03 -71.588 557.03 -71.588 559.03 -76.588 559.03 -76.588 564.03" fill="#2f2e41"/>
    <path d="M 22.814 559.03 L 11.013 559.03 L 11.013 557.03 L 22.814 557.03 L 22.814 559.03 Z M -0.787 559.03 L -12.587 559.03 L -12.587 557.03 L -0.787 557.03 L -0.787 559.03 Z M -24.387 559.03 L -36.188 559.03 L -36.188 557.03 L -24.387 557.03 L -24.387 559.03 Z M -47.988 559.03 L -59.788 559.03 L -59.788 557.03 L -47.988 557.03 L -47.988 559.03 Z" fill="#2f2e41"/>
    <rect x="139.231" y="232.091" width="6" height="2" fill="#2f2e41" transform="matrix(1, 0, 0, 1, -104.616028, 324.939088)"/>
    <rect x="669.34" y="304.762" width="2" height="6" fill="#2f2e41" transform="matrix(1, 0, 0, 1, -104.616028, 324.939088)"/>
    <path d="M 566.724 616.567 L 564.724 616.567 L 564.724 603.433 L 566.724 603.433 L 566.724 616.567 Z M 566.724 590.299 L 564.724 590.299 L 564.724 577.165 L 566.724 577.165 L 566.724 590.299 Z" fill="#2f2e41"/>
    <polygon points="566.724 564.03 564.724 564.03 564.724 559.03 559.724 559.03 559.724 557.03 566.724 557.03 566.724 564.03" fill="#2f2e41"/>
    <path d="M 547.292 559.03 L 534.86 559.03 L 534.86 557.03 L 547.292 557.03 L 547.292 559.03 Z M 522.428 559.03 L 509.996 559.03 L 509.996 557.03 L 522.428 557.03 L 522.428 559.03 Z M 497.565 559.03 L 485.133 559.03 L 485.133 557.03 L 497.565 557.03 L 497.565 559.03 Z M 472.701 559.03 L 460.27 559.03 L 460.27 557.03 L 472.701 557.03 L 472.701 559.03 Z M 447.838 559.03 L 435.406 559.03 L 435.406 557.03 L 447.838 557.03 L 447.838 559.03 Z M 422.974 559.03 L 410.543 559.03 L 410.543 557.03 L 422.974 557.03 L 422.974 559.03 Z M 398.111 559.03 L 385.679 559.03 L 385.679 557.03 L 398.111 557.03 L 398.111 559.03 Z M 373.248 559.03 L 360.816 559.03 L 360.816 557.03 L 373.248 557.03 L 373.248 559.03 Z M 348.384 559.03 L 335.952 559.03 L 335.952 557.03 L 348.384 557.03 L 348.384 559.03 Z" fill="#2f2e41"/>
    <rect x="422.137" y="232.091" width="6" height="2" fill="#2f2e41" transform="matrix(1, 0, 0, 1, -104.616028, 324.939088)"/>
    <circle cx="566.353" cy="680.921" r="27.78" fill="#2e8555"/>
    <path d="M 571.817 680.921 L 577.282 675.456 C 579.381 673.348 578.411 669.758 575.536 668.995 C 574.207 668.642 572.791 669.021 571.817 669.991 L 566.352 675.456 L 560.887 669.991 C 558.779 667.892 555.19 668.862 554.426 671.737 C 554.073 673.066 554.452 674.482 555.422 675.456 L 560.887 680.921 L 555.422 686.386 C 553.312 688.482 554.262 692.077 557.133 692.857 C 558.474 693.221 559.908 692.837 560.887 691.851 L 566.352 686.386 L 571.817 691.851 C 573.914 693.962 577.509 693.011 578.288 690.14 C 578.652 688.799 578.268 687.365 577.282 686.386 L 571.817 680.921 Z" fill="#fff"/>
  </g>
</svg>