<?xml version="1.0" encoding="utf-8"?>
<svg viewBox="0 87.52 500 324.96" xmlns="http://www.w3.org/2000/svg">
  <path d="M 488.129 285.984 L 470.549 285.984 C 469.787 285.986 469.068 285.639 468.594 285.043 C 468.127 284.462 467.952 283.699 468.117 282.973 C 469.769 275.685 469.689 268.111 467.885 260.859 C 467.598 259.715 468.158 258.527 469.225 258.023 C 476.568 254.585 483.311 254.675 489.267 258.288 C 489.899 258.666 490.332 259.303 490.451 260.03 C 491.714 267.915 491.762 275.946 490.595 283.844 C 490.423 285.074 489.37 285.988 488.129 285.984 Z" fill="#2e8555" transform="matrix(1, 0, 0, 1, 1.4210854715202004e-14, 5.684341886080802e-14)"/>
  <path d="M 487.862 274.467 L 474.42 274.467 C 473.449 274.465 472.844 273.413 473.332 272.573 C 473.557 272.185 473.971 271.946 474.42 271.945 L 487.862 271.945 C 488.833 271.947 489.437 272.999 488.95 273.839 C 488.725 274.227 488.311 274.466 487.862 274.467 Z" fill="#fff" transform="matrix(1, 0, 0, 1, 1.4210854715202004e-14, 5.684341886080802e-14)"/>
  <path d="M 487.862 270.045 L 474.42 270.045 C 473.449 270.042 472.844 268.99 473.332 268.151 C 473.557 267.763 473.971 267.523 474.42 267.523 L 487.862 267.523 C 488.833 267.524 489.437 268.577 488.95 269.417 C 488.725 269.805 488.311 270.044 487.862 270.045 Z" fill="#fff" transform="matrix(1, 0, 0, 1, 1.4210854715202004e-14, 5.684341886080802e-14)"/>
  <circle cx="136.067" cy="190.801" r="93.42" fill="#f2f2f2" transform="matrix(1, 0, 0, 1, 1.4210854715202004e-14, 5.684341886080802e-14)"/>
  <circle cx="244.412" cy="263.769" r="17.689" fill="#f2f2f2" transform="matrix(1, 0, 0, 1, 1.4210854715202004e-14, 5.684341886080802e-14)"/>
  <circle cx="333.41" cy="314.072" r="7.186" fill="#f2f2f2" transform="matrix(1, 0, 0, 1, 1.4210854715202004e-14, 5.684341886080802e-14)"/>
  <path d="M 388.895 342.337 C 385.865 319.179 371.356 296.437 349.205 289.036 C 358.074 312.834 358.24 339.003 349.672 362.912 C 346.335 372.12 341.664 382.015 344.918 391.254 C 346.942 397.002 351.833 401.379 357.287 404.101 C 362.74 406.822 368.781 408.097 374.746 409.346 L 375.925 410.308 C 385.245 388.894 391.926 365.494 388.895 342.337 Z" fill="#f2f2f2" transform="matrix(1, 0, 0, 1, 1.4210854715202004e-14, 5.684341886080802e-14)"/>
  <path d="M 348.988 289.476 C 361.952 303.815 370.068 321.875 372.183 341.091 C 372.611 345.21 372.688 349.425 371.813 353.494 C 370.929 357.453 369.002 361.104 366.23 364.066 C 363.702 366.881 360.79 369.466 358.989 372.846 C 357.091 376.408 357.043 380.442 358.382 384.205 C 360.02 388.808 363.215 392.549 366.466 396.098 C 370.076 400.039 373.888 404.075 375.445 409.319 C 375.633 409.955 376.609 409.625 376.42 408.991 C 373.711 399.865 364.803 394.729 360.518 386.522 C 358.518 382.692 357.661 378.236 359.486 374.169 C 361.082 370.611 364.084 367.943 366.668 365.116 C 369.383 362.147 371.457 358.896 372.511 354.981 C 373.59 350.978 373.679 346.75 373.358 342.638 C 372.561 333.318 370.303 324.182 366.668 315.564 C 362.573 305.705 356.823 296.619 349.665 288.699 C 349.221 288.209 348.548 288.989 348.988 289.476 Z" fill="#fff" transform="matrix(1, 0, 0, 1, 1.4210854715202004e-14, 5.684341886080802e-14)"/>
  <path d="M 371.867 334.863 C 378.426 333.226 382.833 327.079 382.277 320.341 C 382.221 319.681 381.193 319.739 381.25 320.399 C 381.778 326.675 377.657 332.399 371.537 333.888 C 370.894 334.045 371.227 335.019 371.867 334.863 Z" fill="#fff" transform="matrix(1, 0, 0, 1, 1.4210854715202004e-14, 5.684341886080802e-14)"/>
  <path d="M 367.7 362.808 C 361.934 359.415 357.658 353.973 355.725 347.568 C 355.535 346.932 354.56 347.262 354.75 347.896 C 356.774 354.559 361.235 360.213 367.243 363.731 C 367.816 364.065 368.27 363.142 367.7 362.808 Z" fill="#fff" transform="matrix(1, 0, 0, 1, 1.4210854715202004e-14, 5.684341886080802e-14)"/>
  <path d="M 361.625 306.686 C 359.258 307.829 356.476 307.705 354.22 306.358 C 353.652 306.015 353.199 306.94 353.764 307.28 C 356.262 308.757 359.329 308.9 361.954 307.661 C 362.217 307.563 362.358 307.277 362.277 307.009 C 362.185 306.741 361.894 306.596 361.625 306.686 Z" fill="#fff" transform="matrix(1, 0, 0, 1, 1.4210854715202004e-14, 5.684341886080802e-14)"/>
  <path d="M 282.098 330.862 C 282.447 331.086 282.796 331.309 283.145 331.542 C 287.819 334.573 292.24 337.978 296.363 341.726 C 296.686 342.01 297.009 342.303 297.324 342.597 C 307.161 351.73 315.216 362.61 321.081 374.684 C 323.411 379.491 325.371 384.467 326.945 389.572 C 329.119 396.621 330.915 404.437 335.165 410.187 C 335.602 410.792 336.076 411.369 336.584 411.915 L 374.659 411.672 C 374.746 411.627 374.832 411.592 374.919 411.548 L 376.44 411.608 C 376.377 411.339 376.306 411.061 376.244 410.793 C 376.208 410.636 376.164 410.48 376.128 410.324 C 376.101 410.22 376.074 410.116 376.056 410.02 C 376.047 409.986 376.038 409.951 376.03 409.925 C 376.012 409.83 375.985 409.743 375.967 409.656 C 375.575 408.103 375.171 406.551 374.756 404.999 C 374.756 404.99 374.756 404.99 374.747 404.981 C 371.552 393.161 367.343 381.503 361.497 370.855 C 361.321 370.535 361.146 370.206 360.953 369.885 C 358.291 365.1 355.243 360.541 351.839 356.252 C 349.967 353.91 347.978 351.664 345.879 349.523 C 340.446 344.001 334.178 339.368 327.305 335.794 C 313.602 328.671 297.774 326.01 283.207 330.508 C 282.835 330.622 282.471 330.738 282.098 330.862 Z" fill="#f2f2f2" transform="matrix(1, 0, 0, 1, 1.4210854715202004e-14, 5.684341886080802e-14)"/>
  <path d="M 282.186 331.344 C 301.171 334.989 318.525 344.522 331.782 358.591 C 334.604 361.622 337.203 364.943 338.954 368.718 C 340.632 372.411 341.291 376.486 340.862 380.521 C 340.538 384.289 339.769 388.108 340.366 391.89 C 340.996 395.877 343.386 399.127 346.721 401.325 C 350.8 404.014 355.603 405.077 360.336 405.954 C 365.59 406.927 371.064 407.855 375.465 411.104 C 375.998 411.499 376.578 410.648 376.046 410.255 C 368.389 404.6 358.184 405.862 349.821 401.889 C 345.919 400.035 342.552 396.994 341.56 392.647 C 340.693 388.845 341.482 384.908 341.843 381.094 C 342.223 377.09 341.922 373.245 340.408 369.485 C 338.858 365.639 336.384 362.209 333.652 359.119 C 327.404 352.158 320.101 346.223 312.01 341.53 C 302.805 336.123 292.743 332.331 282.259 330.318 C 281.61 330.194 281.542 331.221 282.186 331.344 Z" fill="#fff" transform="matrix(1, 0, 0, 1, 1.4210854715202004e-14, 5.684341886080802e-14)"/>
  <path d="M 327.78 353.81 C 332.032 348.554 331.849 340.992 327.349 335.947 C 326.907 335.454 326.121 336.119 326.563 336.612 C 330.764 341.304 330.919 348.356 326.93 353.229 C 326.511 353.742 327.363 354.32 327.78 353.81 Z" fill="#fff" transform="matrix(1, 0, 0, 1, 1.4210854715202004e-14, 5.684341886080802e-14)"/>
  <path d="M 341.278 378.631 C 334.631 379.393 327.941 377.622 322.541 373.671 C 322.007 373.279 321.426 374.13 321.96 374.521 C 327.587 378.622 334.553 380.451 341.469 379.643 C 342.128 379.565 341.934 378.554 341.278 378.631 Z" fill="#fff" transform="matrix(1, 0, 0, 1, 1.4210854715202004e-14, 5.684341886080802e-14)"/>
  <path d="M 302.638 337.478 C 301.437 339.815 299.141 341.392 296.528 341.674 C 295.869 341.743 296.064 342.754 296.719 342.685 C 299.602 342.361 302.138 340.628 303.488 338.059 C 303.639 337.822 303.58 337.509 303.353 337.344 C 303.118 337.185 302.799 337.245 302.638 337.478 Z" fill="#fff" transform="matrix(1, 0, 0, 1, 1.4210854715202004e-14, 5.684341886080802e-14)"/>
  <path d="M 464.72 251.834 L 459.571 201.994 L 458.211 181.48 L 472.624 178.875 C 472.624 178.875 474.782 192.976 476.671 201.252 C 478.533 209.418 474.188 250.74 474.073 251.83 C 478.097 255.428 476.716 262.033 471.589 263.719 C 466.461 265.404 461.431 260.907 462.535 255.623 C 462.841 254.159 463.607 252.832 464.72 251.834 Z" fill="#ffb8b8" transform="matrix(1, 0, 0, 1, 1.4210854715202004e-14, 5.684341886080802e-14)"/>
  <polygon points="405.825 404.868 398.493 404.868 395.005 376.588 405.826 376.589 405.825 404.868" fill="#ffb6b6" transform="matrix(1, 0, 0, 1, 1.4210854715202004e-14, 5.684341886080802e-14)"/>
  <path d="M 407.695 411.976 L 384.053 411.975 L 384.053 411.676 C 384.054 406.594 388.173 402.474 393.255 402.474 L 393.256 402.474 L 397.574 399.198 L 405.631 402.475 L 407.695 402.475 L 407.695 411.976 Z" fill="#2f2e41" transform="matrix(1, 0, 0, 1, 1.4210854715202004e-14, 5.684341886080802e-14)"/>
  <polygon points="470.443 404.868 463.112 404.868 459.624 376.588 470.445 376.589 470.443 404.868" fill="#ffb6b6" transform="matrix(1, 0, 0, 1, 1.4210854715202004e-14, 5.684341886080802e-14)"/>
  <path d="M 472.314 411.976 L 448.673 411.975 L 448.673 411.676 C 448.673 406.594 452.793 402.474 457.874 402.474 L 457.875 402.474 L 462.193 399.198 L 470.251 402.475 L 472.314 402.475 L 472.314 411.976 Z" fill="#2f2e41" transform="matrix(1, 0, 0, 1, 1.4210854715202004e-14, 5.684341886080802e-14)"/>
  <path d="M 459.292 253.51 L 465.459 312.095 C 465.459 312.095 473.668 370.755 472.127 378.848 C 470.585 386.942 472.512 388.099 472.512 388.099 L 458.445 387.096 C 458.445 387.096 458.831 382.086 456.518 379.774 C 454.205 377.461 455.361 370.523 455.361 370.523 L 428.073 275.094 L 411.5 325.199 C 411.5 325.199 408.802 380.315 408.417 381.086 C 408.031 381.857 406.875 392.263 406.875 392.263 L 392.614 392.263 C 392.614 392.263 394.541 386.096 391.843 384.169 C 389.145 382.242 386.833 383.784 389.145 380.315 C 391.458 376.846 392.229 372.606 391.458 370.679 C 390.687 368.752 390.687 361.044 390.687 361.044 C 390.687 361.044 391.843 256.979 398.395 253.51 C 404.948 250.042 459.292 253.51 459.292 253.51 Z" fill="#2f2e41" transform="matrix(1, 0, 0, 1, 1.4210854715202004e-14, 5.684341886080802e-14)"/>
  <circle cx="430.088" cy="119.724" r="15.168" fill="#ffb8b8" transform="matrix(1, 0, 0, 1, 1.4210854715202004e-14, 5.684341886080802e-14)"/>
  <path d="M 475.054 186.826 L 460.136 192.176 L 455.593 193.804 L 452.277 151.446 L 463.658 157.482 C 463.677 157.496 463.694 157.513 463.708 157.532 C 465.679 159.709 467.329 162.156 468.607 164.8 C 474.849 177.489 475.054 186.826 475.054 186.826 Z" fill="#3f3d56" transform="matrix(1, 0, 0, 1, 1.4210854715202004e-14, 5.684341886080802e-14)"/>
  <path d="M 372.289 248.256 C 372.289 248.256 387.451 201.148 387.716 200.584 C 389.702 185.504 395.413 178.851 396.269 179.574 L 411.011 184.681 C 411.011 184.681 406.626 198.566 403.657 206.814 C 400.82 214.694 381.392 251.08 380.847 252.031 C 383.073 256.948 379.142 262.432 373.771 261.902 C 368.399 261.372 365.615 255.226 368.76 250.839 C 369.631 249.624 370.867 248.719 372.289 248.256 Z" fill="#ffb8b8" transform="matrix(1, 0, 0, 1, 1.4210854715202004e-14, 5.684341886080802e-14)"/>
  <path d="M 418.092 154.173 C 418.092 154.173 405.329 147.918 400.379 160.204 C 397.137 168.489 395.602 172.104 393.437 180.733 C 393.437 180.733 406.447 182.685 410.619 190.037 L 418.092 154.173 Z" fill="#3f3d56" transform="matrix(1, 0, 0, 1, 1.4210854715202004e-14, 5.684341886080802e-14)"/>
  <path d="M 464.534 259.896 C 435.16 265.962 396.233 255.532 396.233 255.532 L 406.617 210.52 L 402.926 163.413 C 402.475 157.652 405.756 152.252 410.861 150.339 L 417.909 147.699 L 423.734 139.358 L 440.375 139.905 L 447.027 148.661 L 452.277 151.446 L 463.658 157.482 L 463.708 157.507 L 463.708 157.532 L 460.136 192.176 L 457.982 213.064 C 457.982 213.064 464.524 236.558 463.182 239.673 C 461.839 242.784 463.007 241.281 463.332 242.944 C 463.658 244.607 464.655 244.713 464.805 247.989 C 464.96 251.26 464.534 259.896 464.534 259.896 Z" fill="#3f3d56" transform="matrix(1, 0, 0, 1, 1.4210854715202004e-14, 5.684341886080802e-14)"/>
  <path d="M 446.542 114.323 C 445.343 113.141 447.148 110.011 446.806 108.362 C 446.416 106.471 444.333 106.415 443.836 104.55 C 443.301 102.544 441.163 101.451 439.186 100.815 C 434.118 99.193 428.711 98.945 423.517 100.097 C 421.218 100.659 418.954 101.356 416.737 102.185 C 415.207 102.724 416.683 101.259 415.153 101.797 C 414.574 101.926 414.062 102.265 413.719 102.749 C 413.443 103.269 413.814 104.101 414.393 103.995 C 412.525 104.819 410.657 105.643 408.789 106.467 C 409.837 107.564 410.884 108.661 411.932 109.758 C 410.443 109.335 408.855 111.111 409.442 112.543 C 409.921 113.461 410.822 114.085 411.851 114.21 C 413.533 114.538 412.257 116.139 413.971 116.108 C 415.684 116.076 427.635 112.563 428.468 114.061 C 429.062 115.128 428.996 116.541 429.843 117.42 C 430.927 118.544 432.819 118.133 434.199 117.401 C 435.578 116.669 436.977 115.663 438.529 115.839 C 440.149 116.021 441.374 119.015 441.773 120.596 C 442.172 122.177 441.92 123.841 441.667 125.451 C 441.333 127.566 437.994 129.681 437.661 131.796 C 441.367 132.821 445.342 129.561 446.807 123.89 C 446.661 120.306 449.096 116.843 446.542 114.323 Z" fill="#2f2e41" transform="matrix(1, 0, 0, 1, 1.4210854715202004e-14, 5.684341886080802e-14)"/>
  <path d="M 210.748 311.311 C 166.097 311.313 127.248 278.005 121.509 232.574 L 122.606 232.435 C 128.274 277.305 166.65 310.203 210.748 310.205 C 214.494 310.205 218.238 309.969 221.955 309.498 C 270.592 303.354 305.162 258.786 299.018 210.149 L 300.115 210.01 C 306.335 259.252 271.335 304.375 222.093 310.595 C 218.33 311.071 214.541 311.31 210.748 311.311 Z" fill="#3f3d56" transform="matrix(1, 0, 0, 1, 1.4210854715202004e-14, 5.684341886080802e-14)"/>
  <path d="M 213.145 329.8 L 195.564 329.8 C 194.804 329.802 194.083 329.456 193.611 328.859 C 193.143 328.279 192.967 327.516 193.134 326.789 C 194.802 319.426 194.703 311.773 192.846 304.456 C 192.586 303.419 193.021 302.333 193.925 301.762 C 200.006 297.994 206.629 298.112 214.172 302.122 C 214.867 302.488 215.351 303.158 215.481 303.932 C 216.73 311.789 216.774 319.791 215.61 327.66 C 215.44 328.89 214.387 329.804 213.145 329.8 Z" fill="#2e8555" transform="matrix(1, 0, 0, 1, 1.4210854715202004e-14, 5.684341886080802e-14)"/>
  <path d="M 132.991 235.827 L 115.411 235.827 C 114.65 235.829 113.93 235.482 113.457 234.886 C 112.989 234.306 112.814 233.543 112.98 232.816 C 114.654 225.428 114.549 217.747 112.673 210.408 C 112.43 209.419 112.813 208.382 113.64 207.789 C 122.68 201.287 129.8 201.476 134.8 208.351 C 135.026 208.664 135.175 209.025 135.238 209.406 C 136.574 217.439 136.648 225.631 135.457 233.687 C 135.286 234.917 134.233 235.831 132.991 235.827 Z" fill="#ccc" transform="matrix(1, 0, 0, 1, 1.4210854715202004e-14, 5.684341886080802e-14)"/>
  <path d="M 204.931 313.3 L 198.883 313.3 C 197.912 313.299 197.308 312.246 197.795 311.407 C 198.02 311.019 198.434 310.78 198.883 310.779 L 204.931 310.779 C 205.901 310.779 206.508 311.83 206.023 312.67 C 205.797 313.06 205.381 313.3 204.931 313.3 Z" fill="#fff" transform="matrix(1, 0, 0, 1, 1.4210854715202004e-14, 5.684341886080802e-14)"/>
  <path d="M 212.325 318.283 L 198.883 318.283 C 197.912 318.281 197.308 317.229 197.795 316.389 C 198.02 316.001 198.434 315.762 198.883 315.761 L 212.325 315.761 C 213.296 315.763 213.901 316.815 213.413 317.655 C 213.188 318.043 212.774 318.282 212.325 318.283 Z" fill="#fff" transform="matrix(1, 0, 0, 1, 1.4210854715202004e-14, 5.684341886080802e-14)"/>
  <path d="M 127.541 218.222 L 121.493 218.222 C 120.523 218.22 119.918 217.168 120.405 216.328 C 120.63 215.94 121.045 215.701 121.493 215.7 L 127.541 215.7 C 128.512 215.702 129.116 216.754 128.629 217.594 C 128.404 217.982 127.99 218.221 127.541 218.222 Z" fill="#fff" transform="matrix(1, 0, 0, 1, 1.4210854715202004e-14, 5.684341886080802e-14)"/>
  <path d="M 127.541 222.644 L 121.493 222.644 C 120.523 222.642 119.918 221.59 120.405 220.75 C 120.63 220.362 121.045 220.123 121.493 220.122 L 127.541 220.122 C 128.512 220.124 129.116 221.176 128.629 222.016 C 128.404 222.404 127.99 222.643 127.541 222.644 Z" fill="#fff" transform="matrix(1, 0, 0, 1, 1.4210854715202004e-14, 5.684341886080802e-14)"/>
  <path d="M 127.541 227.066 L 121.493 227.066 C 120.523 227.065 119.918 226.012 120.405 225.172 C 120.63 224.784 121.045 224.546 121.493 224.544 L 127.541 224.544 C 128.512 224.547 129.116 225.599 128.629 226.438 C 128.404 226.826 127.99 227.066 127.541 227.066 Z" fill="#fff" transform="matrix(1, 0, 0, 1, 1.4210854715202004e-14, 5.684341886080802e-14)"/>
  <path d="M 369.606 256.597 L 313.407 256.597 C 310.271 256.594 307.73 254.052 307.726 250.916 L 307.726 216.303 C 307.73 213.167 310.271 210.626 313.407 210.623 L 369.606 210.623 C 372.742 210.626 375.283 213.167 375.286 216.303 L 375.286 250.916 C 375.283 254.053 372.742 256.594 369.606 256.597 Z" fill="#e6e6e6" transform="matrix(1, 0, 0, 1, 1.4210854715202004e-14, 5.684341886080802e-14)"/>
  <path d="M 347.277 252.139 L 317.357 252.139 C 314.42 252.136 312.04 249.755 312.037 246.818 L 312.037 220.401 C 312.04 217.464 314.42 215.084 317.357 215.081 L 365.656 215.081 C 368.593 215.084 370.972 217.464 370.976 220.401 L 370.976 228.44 C 370.961 241.523 360.359 252.124 347.277 252.139 Z" fill="#fff" transform="matrix(1, 0, 0, 1, 1.4210854715202004e-14, 5.684341886080802e-14)"/>
  <path d="M 360.837 229.547 L 322.175 229.547 C 321.205 229.547 320.598 228.496 321.083 227.655 C 321.309 227.265 321.725 227.025 322.175 227.025 L 360.837 227.025 C 361.808 227.025 362.415 228.075 361.929 228.916 C 361.704 229.306 361.288 229.547 360.837 229.547 Z" fill="#2e8555" transform="matrix(1, 0, 0, 1, 1.4210854715202004e-14, 5.684341886080802e-14)"/>
  <path d="M 328.223 234.529 L 322.175 234.529 C 321.205 234.527 320.6 233.475 321.088 232.635 C 321.312 232.247 321.727 232.008 322.175 232.007 L 328.223 232.007 C 329.194 232.009 329.798 233.061 329.311 233.9 C 329.086 234.288 328.672 234.528 328.223 234.529 Z" fill="#2e8555" transform="matrix(1, 0, 0, 1, 1.4210854715202004e-14, 5.684341886080802e-14)"/>
  <path d="M 338.934 239.511 L 322.175 239.511 C 321.205 239.511 320.598 238.46 321.083 237.62 C 321.309 237.23 321.725 236.989 322.175 236.989 L 338.934 236.989 C 339.905 236.989 340.512 238.04 340.026 238.881 C 339.801 239.271 339.385 239.511 338.934 239.511 Z" fill="#2e8555" transform="matrix(1, 0, 0, 1, 1.4210854715202004e-14, 5.684341886080802e-14)"/>
  <circle cx="305.765" cy="209.933" r="11.888" fill="#3f3d56" transform="matrix(1, 0, 0, 1, 1.4210854715202004e-14, 5.684341886080802e-14)"/>
  <path d="M 171.19 119.499 C 175.803 96.082 204.035 86.441 222.008 102.144 C 230.349 109.432 234.168 120.616 232.027 131.484 L 230.942 131.271 C 235.391 108.689 213.727 89.76 191.947 97.198 C 181.839 100.65 174.34 109.232 172.275 119.712 L 171.19 119.499 Z" fill="#3f3d56" transform="matrix(1, 0, 0, 1, 1.4210854715202004e-14, 5.684341886080802e-14)"/>
  <path d="M 182.963 139.058 L 165.397 139.786 C 164.637 139.819 163.904 139.502 163.406 138.926 C 162.915 138.365 162.708 137.61 162.844 136.877 C 164.192 129.527 163.799 121.963 161.697 114.792 C 161.362 113.661 161.873 112.451 162.917 111.903 C 170.112 108.165 176.854 107.975 182.954 111.339 C 183.6 111.69 184.06 112.309 184.209 113.03 C 185.797 120.856 186.177 128.878 185.338 136.818 C 185.218 138.053 184.203 139.01 182.963 139.058 Z" fill="#2e8555" transform="matrix(1, 0, 0, 1, 1.4210854715202004e-14, 5.684341886080802e-14)"/>
  <path d="M 182.22 127.561 L 168.789 128.118 C 167.819 128.159 167.168 127.135 167.618 126.275 C 167.827 125.874 168.234 125.616 168.684 125.598 L 182.115 125.042 C 183.085 125.001 183.735 126.026 183.285 126.886 C 183.076 127.286 182.669 127.543 182.22 127.561 Z" fill="#fff" transform="matrix(1, 0, 0, 1, 1.4210854715202004e-14, 5.684341886080802e-14)"/>
  <path d="M 182.037 123.143 L 168.606 123.699 C 167.636 123.739 166.986 122.715 167.436 121.855 C 167.645 121.455 168.051 121.198 168.501 121.18 L 181.932 120.623 C 182.902 120.583 183.552 121.608 183.101 122.468 C 182.893 122.867 182.486 123.124 182.037 123.143 Z" fill="#fff" transform="matrix(1, 0, 0, 1, 1.4210854715202004e-14, 5.684341886080802e-14)"/>
  <path d="M 297.918 133.495 L 241.719 133.495 C 238.583 133.491 236.042 130.95 236.038 127.814 L 236.038 93.201 C 236.042 90.065 238.583 87.523 241.719 87.52 L 297.918 87.52 C 301.054 87.523 303.595 90.065 303.599 93.201 L 303.599 127.814 C 303.595 130.95 301.054 133.491 297.918 133.495 Z" fill="#e6e6e6" transform="matrix(1, 0, 0, 1, 1.4210854715202004e-14, 5.684341886080802e-14)"/>
  <path d="M 275.59 129.036 L 245.67 129.036 C 242.733 129.033 240.353 126.653 240.349 123.716 L 240.349 97.299 C 240.353 94.362 242.733 91.982 245.67 91.978 L 293.968 91.978 C 296.905 91.982 299.285 94.362 299.289 97.299 L 299.289 105.338 C 299.274 118.42 288.672 129.022 275.59 129.036 Z" fill="#fff" transform="matrix(1, 0, 0, 1, 1.4210854715202004e-14, 5.684341886080802e-14)"/>
  <path d="M 289.15 106.444 L 250.488 106.444 C 249.517 106.444 248.911 105.393 249.396 104.552 C 249.621 104.163 250.037 103.922 250.488 103.922 L 289.15 103.922 C 290.121 103.922 290.727 104.973 290.242 105.813 C 290.017 106.204 289.6 106.444 289.15 106.444 Z" fill="#2e8555" transform="matrix(1, 0, 0, 1, 1.4210854715202004e-14, 5.684341886080802e-14)"/>
  <path d="M 256.536 111.426 L 250.488 111.426 C 249.517 111.425 248.913 110.372 249.4 109.533 C 249.625 109.145 250.039 108.906 250.488 108.904 L 256.536 108.904 C 257.506 108.907 258.111 109.959 257.624 110.798 C 257.399 111.186 256.984 111.426 256.536 111.426 Z" fill="#2e8555" transform="matrix(1, 0, 0, 1, 1.4210854715202004e-14, 5.684341886080802e-14)"/>
  <path d="M 267.247 116.409 L 250.488 116.409 C 249.517 116.409 248.911 115.358 249.396 114.517 C 249.621 114.127 250.037 113.887 250.488 113.887 L 267.247 113.887 C 268.218 113.889 268.822 114.941 268.335 115.78 C 268.11 116.169 267.695 116.408 267.247 116.409 Z" fill="#2e8555" transform="matrix(1, 0, 0, 1, 1.4210854715202004e-14, 5.684341886080802e-14)"/>
  <circle cx="568.562" cy="238.725" r="11.888" transform="matrix(0.527930974960327, -0.8492869734764099, 0.8492869734764098, 0.5279309749603271, -270.28631666191654, 490.05273572384255)" fill="#3f3d56"/>
  <path d="M 499.491 412.48 L 336.16 412.48 C 335.768 412.48 335.523 412.056 335.719 411.717 C 335.81 411.56 335.978 411.463 336.16 411.463 L 499.491 411.463 C 499.882 411.463 500.127 411.887 499.931 412.225 C 499.84 412.383 499.672 412.48 499.491 412.48 Z" fill="#ccc" transform="matrix(1, 0, 0, 1, 1.4210854715202004e-14, 5.684341886080802e-14)"/>
  <path d="M 74.255 225.954 C 60.098 188.528 91.763 149.812 131.253 156.264 C 149.58 159.259 164.918 171.803 171.488 189.172 L 170.454 189.564 C 156.598 152.935 108.286 145.041 83.492 175.354 C 71.986 189.423 68.859 208.562 75.289 225.562 L 74.255 225.954 Z" fill="#3f3d56" transform="matrix(1, 0, 0, 1, 1.4210854715202004e-14, 5.684341886080802e-14)"/>
  <path d="M 119.725 174.468 L 102.144 174.468 C 101.383 174.47 100.663 174.123 100.19 173.527 C 99.723 172.947 99.547 172.184 99.713 171.457 C 101.378 164.111 101.283 156.477 99.439 149.175 C 99.17 148.113 99.633 147.002 100.576 146.445 C 106.944 142.738 113.745 142.851 120.789 146.782 C 121.464 147.151 121.932 147.81 122.056 148.57 C 123.31 156.437 123.355 164.448 122.19 172.328 C 122.019 173.558 120.966 174.472 119.725 174.468 Z" fill="#2e8555" transform="matrix(1, 0, 0, 1, 1.4210854715202004e-14, 5.684341886080802e-14)"/>
  <path d="M 111.51 157.416 L 105.463 157.416 C 104.492 157.414 103.887 156.361 104.374 155.522 C 104.599 155.134 105.014 154.895 105.463 154.894 L 111.51 154.894 C 112.481 154.896 113.086 155.948 112.598 156.788 C 112.373 157.176 111.959 157.415 111.51 157.416 Z" fill="#fff" transform="matrix(1, 0, 0, 1, 1.4210854715202004e-14, 5.684341886080802e-14)"/>
  <path d="M 118.905 162.398 L 105.463 162.398 C 104.492 162.398 103.885 161.348 104.37 160.507 C 104.596 160.116 105.012 159.876 105.463 159.876 L 118.905 159.876 C 119.875 159.878 120.48 160.93 119.993 161.77 C 119.768 162.158 119.354 162.397 118.905 162.398 Z" fill="#fff" transform="matrix(1, 0, 0, 1, 1.4210854715202004e-14, 5.684341886080802e-14)"/>
  <path d="M 61.88 225.257 L 5.681 225.257 C 2.545 225.253 0.004 222.712 0 219.576 L 0 184.963 C 0.004 181.827 2.545 179.285 5.681 179.282 L 61.88 179.282 C 65.016 179.285 67.557 181.827 67.561 184.963 L 67.561 219.576 C 67.557 222.712 65.016 225.253 61.88 225.257 Z" fill="#e6e6e6" transform="matrix(1, 0, 0, 1, 1.4210854715202004e-14, 5.684341886080802e-14)"/>
  <path d="M 39.551 220.798 L 9.631 220.798 C 6.694 220.795 4.314 218.415 4.311 215.478 L 4.311 189.061 C 4.314 186.124 6.694 183.744 9.631 183.74 L 57.929 183.74 C 60.866 183.744 63.247 186.124 63.25 189.061 L 63.25 197.1 C 63.235 210.182 52.633 220.784 39.551 220.798 Z" fill="#fff" transform="matrix(1, 0, 0, 1, 1.4210854715202004e-14, 5.684341886080802e-14)"/>
  <path d="M 53.111 198.206 L 14.449 198.206 C 13.479 198.206 12.872 197.155 13.357 196.314 C 13.582 195.925 13.999 195.684 14.449 195.684 L 53.111 195.684 C 54.082 195.684 54.689 196.735 54.203 197.575 C 53.978 197.966 53.562 198.206 53.111 198.206 Z" fill="#2e8555" transform="matrix(1, 0, 0, 1, 1.4210854715202004e-14, 5.684341886080802e-14)"/>
  <path d="M 20.497 203.188 L 14.449 203.188 C 13.479 203.187 12.874 202.134 13.361 201.295 C 13.586 200.907 14.001 200.668 14.449 200.666 L 20.497 200.666 C 21.468 200.669 22.072 201.721 21.585 202.56 C 21.36 202.948 20.946 203.188 20.497 203.188 Z" fill="#2e8555" transform="matrix(1, 0, 0, 1, 1.4210854715202004e-14, 5.684341886080802e-14)"/>
  <path d="M 31.208 208.171 L 14.449 208.171 C 13.479 208.169 12.874 207.117 13.361 206.277 C 13.586 205.889 14.001 205.65 14.449 205.649 L 31.208 205.649 C 32.179 205.649 32.786 206.7 32.3 207.54 C 32.075 207.931 31.659 208.171 31.208 208.171 Z" fill="#2e8555" transform="matrix(1, 0, 0, 1, 1.4210854715202004e-14, 5.684341886080802e-14)"/>
  <circle cx="281.562" cy="402.725" r="11.888" transform="matrix(0.527930974960327, -0.8492869734764099, 0.8492869734764098, 0.5279309749603271, -416.702119066871, 250.38301155342305)" fill="#3f3d56"/>
  <path d="M 179.978 207.635 L 162.397 207.635 C 161.637 207.637 160.916 207.29 160.444 206.694 C 159.976 206.114 159.8 205.351 159.967 204.624 C 161.628 197.291 161.537 189.67 159.701 182.38 C 159.434 181.303 159.913 180.18 160.875 179.628 C 169.416 174.739 176.178 174.874 181.55 180.04 C 181.926 180.409 182.174 180.889 182.257 181.409 C 183.562 189.38 183.625 197.505 182.443 205.496 C 182.273 206.725 181.22 207.639 179.978 207.635 Z" fill="#ff6584" transform="matrix(1, 0, 0, 1, 1.4210854715202004e-14, 5.684341886080802e-14)"/>
  <path d="M 172.869 191.135 L 166.822 191.135 C 165.851 191.134 165.246 190.081 165.733 189.242 C 165.958 188.853 166.373 188.615 166.822 188.614 L 172.869 188.614 C 173.84 188.616 174.445 189.668 173.957 190.507 C 173.732 190.895 173.318 191.135 172.869 191.135 Z" fill="#fff" transform="matrix(1, 0, 0, 1, 1.4210854715202004e-14, 5.684341886080802e-14)"/>
  <path d="M 180.264 196.118 L 166.822 196.118 C 165.851 196.118 165.244 195.067 165.729 194.227 C 165.955 193.836 166.371 193.596 166.822 193.596 L 180.264 193.596 C 181.234 193.598 181.839 194.65 181.352 195.49 C 181.127 195.878 180.713 196.117 180.264 196.118 Z" fill="#fff" transform="matrix(1, 0, 0, 1, 1.4210854715202004e-14, 5.684341886080802e-14)"/>
</svg>