<?xml version="1.0" encoding="utf-8"?>
<svg viewBox="-119.11 -142.9441 738.22 785.8891" xmlns="http://www.w3.org/2000/svg">
  <path id="ef8ddbf2-422b-4660-b5cd-bfa08ac6b7d7-2789" data-name="Path 2389" d="M 549.333 119.476 L 545.542 118.202 L 580.342 14.33 C 591.465 -18.871 573.567 -54.803 540.366 -65.926 L 540.363 -65.927 L 320.291 -139.643 C 287.09 -150.766 251.158 -132.868 240.035 -99.667 L 240.034 -99.664 L 49.142 470.186 C 38.019 503.387 55.917 539.319 89.118 550.442 L 89.121 550.443 L 309.188 624.163 C 342.389 635.285 378.32 617.386 389.442 584.185 L 520.771 192.145 L 524.563 193.415 L 549.333 119.476 Z" fill="#3f3d56"/>
  <path id="fd0ceacc-b1f5-4281-8e70-8593bae263ea-2790" data-name="Path 2390" d="M 537.542 -49.47 L 508.816 -59.093 C 509.839 -43.147 494.376 -31.249 479.224 -36.323 L 353.152 -78.556 C 338.004 -83.635 332.832 -102.445 343.252 -114.556 L 316.422 -123.544 C 291.627 -131.85 264.794 -118.483 256.487 -93.688 L 65.868 475.325 C 57.562 500.12 70.929 526.954 95.724 535.26 L 316.851 609.335 C 341.646 617.641 368.48 604.274 376.786 579.479 L 567.4 10.465 C 575.706 -14.33 562.338 -41.164 537.543 -49.47 L 537.542 -49.47 Z" fill="#fff"/>
  <path id="ff2c3c85-1cba-4c81-ad38-62c498a2a918-2791" data-name="Path 2391" d="M 482.242 141.428 L 246.258 62.376 C 243.847 61.565 242.547 58.955 243.352 56.542 L 262.962 -1.998 C 263.773 -4.409 266.383 -5.709 268.796 -4.904 L 504.782 74.149 C 507.194 74.96 508.494 77.57 507.688 79.983 L 488.078 138.521 C 487.267 140.933 484.658 142.233 482.244 141.427 L 482.242 141.428 Z M 268.21 -3.154 C 266.762 -3.637 265.197 -2.857 264.71 -1.41 L 245.1 57.128 C 244.617 58.576 245.397 60.142 246.844 60.628 L 482.829 139.681 C 484.277 140.164 485.843 139.384 486.329 137.937 L 505.942 79.402 C 506.425 77.954 505.645 76.388 504.198 75.902 L 268.21 -3.154 Z" fill="#3f3d56"/>
  <path id="a7bacb06-5dda-4315-86f5-9fde62022a18-2792" data-name="Path 2392" d="M 404.655 373.043 L 168.67 293.991 C 166.259 293.18 164.959 290.57 165.764 288.157 L 202.062 179.802 C 202.873 177.391 205.483 176.091 207.896 176.896 L 443.882 255.946 C 446.294 256.757 447.594 259.367 446.788 261.78 L 410.488 370.137 C 409.677 372.548 407.068 373.848 404.655 373.043 Z M 207.31 178.643 C 205.862 178.16 204.296 178.94 203.81 180.387 L 167.512 288.742 C 167.029 290.19 167.809 291.756 169.256 292.242 L 405.242 371.295 C 406.69 371.778 408.256 370.998 408.742 369.551 L 445.042 261.194 C 445.525 259.746 444.745 258.18 443.298 257.694 L 207.31 178.643 Z" fill="#3f3d56"/>
  <path id="a78be333-998c-4fe1-92ac-6c17265b914a-2793" data-name="Path 2393" d="M 450.042 231.741 L 345.163 196.602 C 342.752 195.791 341.452 193.181 342.257 190.768 L 361.867 132.23 C 362.678 129.819 365.288 128.519 367.701 129.324 L 472.583 164.462 C 474.995 165.273 476.295 167.883 475.489 170.296 L 455.88 228.834 C 455.07 231.248 452.457 232.549 450.042 231.741 Z M 367.115 131.076 C 365.667 130.593 364.102 131.373 363.615 132.82 L 344.006 191.358 C 343.523 192.806 344.303 194.372 345.75 194.858 L 450.632 229.992 C 452.08 230.475 453.646 229.695 454.132 228.248 L 473.742 169.71 C 474.225 168.262 473.445 166.696 471.998 166.21 L 367.115 131.076 Z" fill="#e6e6e6"/>
  <path id="b3f2a87a-cc28-4d1a-8acd-979c53a8dd39-2794" data-name="Path 2394" d="M 226.121 470.716 L 121.242 435.582 C 118.831 434.771 117.531 432.161 118.336 429.748 L 154.927 320.517 C 155.738 318.106 158.348 316.806 160.761 317.611 L 265.642 352.745 C 268.054 353.556 269.354 356.166 268.548 358.579 L 231.955 467.81 C 231.144 470.222 228.535 471.522 226.121 470.716 Z M 160.172 319.358 C 158.724 318.875 157.158 319.655 156.672 321.102 L 120.08 430.333 C 119.597 431.781 120.377 433.347 121.824 433.833 L 226.707 468.968 C 228.155 469.451 229.721 468.671 230.207 467.224 L 266.798 357.993 C 267.281 356.545 266.501 354.979 265.054 354.493 L 160.172 319.358 Z" fill="#e6e6e6"/>
  <path id="bb07296c-c3fc-491e-8a85-4137ac9f94aa-2795" data-name="Path 2395" d="M 355.476 514.049 L 250.593 478.914 C 248.182 478.103 246.882 475.493 247.687 473.08 L 284.278 363.849 C 285.089 361.438 287.699 360.138 290.112 360.943 L 394.995 396.078 C 397.407 396.889 398.707 399.499 397.901 401.912 L 361.31 511.142 C 360.5 513.554 357.89 514.854 355.476 514.049 Z M 289.527 362.691 C 288.079 362.208 286.513 362.988 286.027 364.435 L 249.435 473.666 C 248.952 475.114 249.732 476.68 251.179 477.166 L 356.062 512.302 C 357.51 512.785 359.076 512.005 359.562 510.558 L 396.153 401.327 C 396.636 399.879 395.856 398.313 394.409 397.827 L 289.527 362.691 Z" fill="#e6e6e6"/>
  <circle id="a320c467-7a2a-401b-bd10-29e63d92c9f6" data-name="Ellipse 477" cx="229.957" cy="226.976" r="18.774" fill="#2e8555"/>
  <path id="b9e531ec-0ab3-46c5-ae54-579cfd03e1f5-2796" data-name="Path 2396" d="M 275.042 228.881 C 272.758 228.116 270.502 230.11 270.982 232.471 C 271.204 233.566 271.994 234.46 273.054 234.815 L 412.923 281.669 C 415.207 282.434 417.463 280.44 416.984 278.079 C 416.761 276.984 415.971 276.09 414.911 275.735 L 275.042 228.881 Z" fill="#e6e6e6"/>
  <path id="ad39a0b5-50a7-48f2-b8cb-2db0547457f7-2797" data-name="Path 2397" d="M 269.082 246.682 C 266.798 245.917 264.542 247.911 265.022 250.272 C 265.244 251.367 266.034 252.261 267.094 252.616 L 327.28 272.778 C 329.564 273.543 331.82 271.549 331.341 269.188 C 331.118 268.093 330.328 267.199 329.268 266.844 L 269.082 246.682 Z" fill="#e6e6e6"/>
  <path id="aac09e93-991f-40c6-86d0-b318c2c011d1-2798" data-name="Path 2398" d="M 204.781 256.795 C 202.524 256.039 200.242 256.755 199.694 258.395 C 199.146 260.035 200.537 261.977 202.794 262.733 L 395.77 327.378 C 398.027 328.134 400.309 327.418 400.857 325.778 C 401.405 324.138 400.014 322.196 397.757 321.44 L 204.781 256.795 Z" fill="#e6e6e6"/>
  <path id="f158e8ac-632b-46f0-9cf0-44644e76b9a4-2799" data-name="Path 2399" d="M 198.818 274.597 C 196.561 273.841 194.279 274.557 193.731 276.197 C 193.183 277.837 194.574 279.779 196.831 280.535 L 389.807 345.18 C 392.064 345.936 394.346 345.22 394.894 343.58 C 395.442 341.94 394.051 339.998 391.794 339.242 L 198.818 274.597 Z" fill="#e6e6e6"/>
  <circle id="b837b54e-04c2-4911-922a-03186401a785" data-name="Ellipse 478" cx="294.948" cy="38.774" r="18.774" fill="#2e8555"/>
  <path id="b88d563f-8e66-4064-9d4c-186cef5c87ad-2800" data-name="Path 2400" d="M 340.035 40.678 C 337.751 39.913 335.495 41.907 335.975 44.268 C 336.197 45.363 336.987 46.257 338.047 46.612 L 477.916 93.466 C 480.2 94.231 482.456 92.237 481.977 89.876 C 481.754 88.781 480.964 87.887 479.904 87.532 L 340.035 40.678 Z" fill="#e6e6e6"/>
  <path id="b990f7ae-58a3-4b3d-8dda-750e08426c01-2801" data-name="Path 2401" d="M 334.072 58.48 C 331.788 57.715 329.532 59.709 330.012 62.07 C 330.234 63.165 331.024 64.059 332.084 64.414 L 392.27 84.576 C 394.554 85.341 396.81 83.347 396.331 80.986 C 396.108 79.891 395.318 78.997 394.258 78.642 L 334.072 58.48 Z" fill="#e6e6e6"/>
  <path id="a3d5ec06-af2b-4b16-90b4-10a3978e7f3c-2802" data-name="Path 2402" d="M 320.595 188.388 L 222.206 155.429 L 258.795 123.08 C 261.67 120.537 266.22 122.06 266.985 125.821 C 266.985 125.822 266.985 125.822 266.985 125.823 L 271.137 146.269 L 297.714 122.769 C 301.315 119.586 307.011 121.494 307.967 126.204 L 320.595 188.388 Z M 225.819 154.695 L 318.153 185.626 L 306.16 126.575 C 305.485 123.257 301.473 121.913 298.935 124.155 L 269.966 149.766 L 265.178 126.191 C 264.698 123.821 261.831 122.859 260.018 124.461 C 260.018 124.461 260.018 124.462 260.017 124.462 L 225.819 154.695 Z" fill="#e6e6e6"/>
  <path id="ad2d9a36-cccf-4762-a8b2-ae4cbcf1fc8d-2803" data-name="Path 2404" d="M 320.691 188.408 L 215.809 153.274 C 213.398 152.463 212.098 149.853 212.903 147.44 L 232.512 88.902 C 233.323 86.491 235.933 85.191 238.346 85.996 L 343.229 121.131 C 345.641 121.942 346.941 124.552 346.135 126.965 L 326.525 185.502 C 325.714 187.914 323.105 189.214 320.691 188.408 Z M 237.761 87.743 C 236.313 87.26 234.747 88.04 234.261 89.487 L 214.652 148.025 C 214.169 149.473 214.949 151.039 216.396 151.525 L 321.279 186.66 C 322.727 187.143 324.293 186.363 324.779 184.916 L 344.389 126.378 C 344.872 124.93 344.092 123.364 342.645 122.878 L 237.761 87.743 Z" fill="#e6e6e6"/>
  <path id="ff89cf89-8b1b-4dc3-86a1-ad04f586c716-2804" data-name="Path 2405" d="M 175.56 347.622 C 173.277 346.854 171.019 348.845 171.495 351.207 C 171.717 352.305 172.509 353.201 173.572 353.556 L 233.758 373.718 C 236.043 374.48 238.297 372.483 237.814 370.123 C 237.591 369.031 236.803 368.14 235.746 367.784 L 175.56 347.622 Z" fill="#e6e6e6"/>
  <path id="bdb6c5c0-7147-4e18-95bd-6c2e13251f4c-2805" data-name="Path 2406" d="M 169.704 365.102 C 167.421 364.334 165.163 366.325 165.639 368.686 C 165.861 369.785 166.653 370.681 167.716 371.036 L 227.903 391.202 C 230.189 391.961 232.44 389.96 231.954 387.601 C 231.729 386.512 230.944 385.624 229.891 385.268 L 169.704 365.102 Z" fill="#e6e6e6"/>
  <path id="e711c4eb-2570-4817-927e-bed9d0e120e8-2806" data-name="Path 2408" d="M 340.673 484.037 C 342.958 484.799 345.211 482.802 344.729 480.442 C 344.506 479.35 343.718 478.459 342.661 478.103 L 282.475 457.941 C 280.19 457.179 277.937 459.176 278.419 461.536 C 278.643 462.628 279.43 463.52 280.487 463.875 L 340.673 484.037 Z" fill="#e6e6e6"/>
  <path id="ac126517-37f4-4549-a663-190a6b7a92b8-2807" data-name="Path 2409" d="M 346.529 466.556 C 348.812 467.324 351.071 465.333 350.594 462.972 C 350.373 461.873 349.581 460.977 348.517 460.622 L 288.331 440.46 C 286.048 439.692 283.79 441.683 284.266 444.045 C 284.488 445.143 285.28 446.039 286.343 446.394 L 346.529 466.556 Z" fill="#e6e6e6"/>
  <path id="b0744aa1-6c52-44f5-8f87-5c835d602c4a-2808" data-name="Path 2409" d="M 440.529 186.556 C 442.812 187.324 445.071 185.333 444.594 182.972 C 444.373 181.873 443.581 180.977 442.517 180.622 L 382.331 160.46 C 380.048 159.692 377.79 161.683 378.266 164.045 C 378.488 165.143 379.28 166.039 380.343 166.394 L 440.529 186.556 Z" fill="#e6e6e6"/>
  <path id="f9fb24f1-195d-4908-aecd-a74b480672b4-2809" data-name="Path 2409" d="M 435.529 200.556 C 437.812 201.324 440.071 199.333 439.594 196.972 C 439.373 195.873 438.581 194.977 437.517 194.622 L 377.331 174.46 C 375.048 173.692 372.79 175.683 373.266 178.045 C 373.488 179.143 374.28 180.039 375.343 180.394 L 435.529 200.556 Z" fill="#e6e6e6"/>
  <rect id="a6aa4d97-c7f3-4c66-8fef-1a835a984f6d" data-name="Rectangle 256" y="640.945" width="738.22" height="2" fill="#cacaca" x="-119.11"/>
</svg>